<svg width="46" height="46" viewBox="0 0 46 46" fill="none" xmlns="http://www.w3.org/2000/svg">
<path d="M22.9999 7.66675C14.5452 7.66675 7.6665 14.5455 7.6665 23.0001C7.6665 31.4548 14.5452 38.3335 22.9999 38.3335C31.4545 38.3335 38.3332 31.4548 38.3332 23.0001C38.3332 14.5455 31.4545 7.66675 22.9999 7.66675ZM30.8444 13.3943C31.0166 13.2025 31.2599 13.0892 31.5182 13.0789C31.7409 13.0537 32.0274 13.1622 32.2145 13.34C34.2023 15.2221 35.5537 17.6179 36.1189 20.2683C36.2088 20.6913 36.0047 21.1218 35.621 21.3202C34.6832 21.805 33.5696 22.0399 32.5027 22.0399C31.112 22.0399 29.7943 21.6411 29.0306 20.8775C27.406 19.2538 28.0835 16.4565 30.8444 13.3943ZM15.1554 32.7556C14.9832 32.9474 14.7399 33.0616 14.4816 33.072C14.4704 33.0729 14.4573 33.0729 14.4441 33.0729C14.199 33.0729 13.9631 32.9792 13.7853 32.8108C11.7975 30.9287 10.4461 28.5329 9.88088 25.8816C9.79104 25.4586 9.99507 25.0281 10.3788 24.8297C12.5388 23.7151 15.6197 23.9228 16.9692 25.2723C18.592 26.8962 17.9144 29.6935 15.1554 32.7556ZM16.9691 20.8776C16.2054 21.6412 14.8877 22.04 13.497 22.04C12.4301 22.04 11.3183 21.805 10.3787 21.3203C9.99498 21.1219 9.79095 20.6914 9.88079 20.2684C10.4461 17.618 11.7974 15.2222 13.7852 13.3401C13.9724 13.1623 14.2476 13.0519 14.4815 13.079C14.7398 13.0894 14.9831 13.2026 15.1553 13.3944C17.9162 16.4565 18.5938 19.2538 16.9691 20.8776ZM27.084 35.7795C25.7569 36.2025 24.383 36.4168 22.9999 36.4168C21.6167 36.4168 20.2427 36.2026 18.9158 35.7795C18.4946 35.6447 18.2195 35.2404 18.2494 34.7997C18.489 31.3509 20.531 28.7501 22.9999 28.7501C25.4687 28.7501 27.5107 31.3509 27.7504 34.7996C27.7803 35.2404 27.5052 35.6447 27.084 35.7795ZM19.1665 23.0001C19.1665 20.886 20.8867 19.1667 22.9999 19.1667C25.1131 19.1667 26.8332 20.8859 26.8332 23.0001C26.8332 25.1143 25.1131 26.8335 22.9999 26.8335C20.8867 26.8335 19.1665 25.1142 19.1665 23.0001ZM27.7504 11.2764C27.5107 14.7242 25.4687 17.325 22.9999 17.325C20.531 17.325 18.489 14.7242 18.2494 11.2764C18.2195 10.8356 18.4927 10.4313 18.9139 10.2975C21.568 9.44952 24.4318 9.44952 27.0859 10.2975C27.5071 10.4313 27.7803 10.8356 27.7504 11.2764ZM36.1189 25.7291C35.5536 28.3804 34.2023 30.7763 32.2145 32.6583C32.0367 32.8268 31.8009 32.9204 31.5557 32.9204C31.5426 32.9204 31.5295 32.9204 31.5182 32.9195C31.2599 32.9092 31.0166 32.796 30.8444 32.6041C28.0836 29.542 27.406 26.7437 29.0306 25.12C30.3802 23.7695 33.4592 23.5645 35.621 24.6773C36.0047 24.8756 36.2088 25.3061 36.1189 25.7291Z" fill="white"/>
<path d="M23 0C10.317 0 0 10.318 0 23C0 35.682 10.317 46 23 46C35.683 46 46 35.682 46 23C46 10.318 35.683 0 23 0ZM23 40.25C13.4878 40.25 5.75 32.5113 5.75 23C5.75 13.4887 13.4878 5.75 23 5.75C32.5122 5.75 40.25 13.4887 40.25 23C40.25 32.5113 32.5122 40.25 23 40.25Z" fill="white"/>
</svg>
