<svg width="40" height="40" viewBox="0 0 40 40" fill="none" xmlns="http://www.w3.org/2000/svg">
<circle cx="20" cy="20" r="20" fill="#61C4A1"/>
<path d="M27.76 23.9203C26.4636 22.8869 25.148 22.261 23.8675 23.2928L23.1029 23.9164C22.5435 24.3691 21.5034 26.4842 17.482 22.1728C13.4615 17.8668 15.854 17.1963 16.4143 16.7475L17.1831 16.1231C18.4568 15.089 17.9761 13.7871 17.0574 12.447L16.5031 11.6353C15.5802 10.2983 14.5753 9.4202 13.2982 10.4528L12.6081 11.0148C12.0437 11.398 10.4659 12.6437 10.0832 15.0101C9.62262 17.8496 11.0756 21.1011 14.4044 24.6688C17.7291 28.238 20.9842 30.0308 24.0677 29.9996C26.6303 29.9738 28.1779 28.6923 28.6619 28.2263L29.3545 27.6636C30.6282 26.6317 29.8368 25.5812 28.5396 24.5455L27.76 23.9203Z" fill="white"/>
</svg>
