<svg width="55" height="39" viewBox="0 0 55 39" fill="none" xmlns="http://www.w3.org/2000/svg">
<path d="M53.8345 11.8573C53.5697 11.5343 53.1746 11.3457 52.7601 11.3457H47.4905C46.19 7.91585 44.4959 4.55528 42.5702 3.28675C35.9087 -1.09558 18.2394 -1.09558 11.5778 3.28675C9.65078 4.55666 7.96357 7.92139 6.65622 11.3457H1.38661C0.967927 11.3457 0.574197 11.5343 0.312172 11.8573C0.0487611 12.1789 -0.0566033 12.6046 0.0293518 13.0135L0.80988 16.7956C0.942972 17.4402 1.51139 17.9005 2.16714 17.9005H3.7282C2.22121 19.639 1.49059 21.8281 1.48089 24.0186C1.47118 26.7248 2.49848 29.1703 4.37702 30.9005C4.39782 30.9186 4.41861 30.931 4.43802 30.9491V36.2408C4.43802 37.3874 5.36966 38.3204 6.51758 38.3204H11.3782C12.5261 38.3204 13.4578 37.3874 13.4578 36.2408V34.1141H40.6875V36.2408C40.6875 37.3874 41.6192 38.3204 42.7671 38.3204H47.6277C48.7729 38.3204 49.7073 37.3874 49.7073 36.2408V31.053C51.7009 29.2272 52.6533 26.7151 52.6658 24.2071C52.6741 21.9418 51.9102 19.6723 50.3145 17.8977H51.9795C52.6381 17.8977 53.2065 17.4375 53.3368 16.7914L54.1187 13.0108C54.1991 12.6046 54.0979 12.1817 53.8345 11.8573ZM13.8612 6.75961C19.171 3.26456 34.9743 3.26456 40.2813 6.75961C41.3128 7.43616 42.6395 10.1715 43.8554 13.521H10.2899C11.503 10.1729 12.8297 7.43893 13.8612 6.75961ZM7.64193 24.5399C7.64193 22.2801 9.47472 20.4501 11.7331 20.4501C13.9943 20.4501 15.8243 22.2801 15.8243 24.5399C15.8243 26.7996 13.9943 28.631 11.7331 28.631C9.47472 28.631 7.64193 26.7996 7.64193 24.5399ZM42.4663 28.631C40.2078 28.631 38.3751 26.7996 38.3751 24.5399C38.3751 22.2801 40.2078 20.4501 42.4663 20.4501C44.7274 20.4501 46.5574 22.2801 46.5574 24.5399C46.5574 26.7996 44.7247 28.631 42.4663 28.631Z" fill="#1E1B1B"/>
</svg>
