<svg width="1280" height="128" viewBox="0 0 1280 128" fill="none" xmlns="http://www.w3.org/2000/svg">
<g opacity="0.8">
<path d="M877.082 73.2117C876.331 73.2521 875.588 73.04 874.974 72.6094C874.717 72.4202 874.51 72.1717 874.372 71.8853C874.233 71.599 874.167 71.2834 874.179 70.9658V59.3351C874.172 59.2858 874.178 59.2359 874.194 59.1889C874.21 59.142 874.237 59.0994 874.272 59.0643C874.307 59.0292 874.35 59.0026 874.398 58.9865C874.445 58.9703 874.495 58.9651 874.545 58.9712H876.665C876.905 58.9712 877.018 59.0967 877.018 59.3351V70.0625C877.018 70.5392 877.233 70.7776 877.675 70.7776C877.862 70.7853 878.049 70.7641 878.23 70.7149C878.483 70.7149 878.621 70.7902 878.634 71.016L878.823 72.5843C878.832 72.6301 878.832 72.6772 878.821 72.7226C878.81 72.7679 878.79 72.8105 878.761 72.8473C878.732 72.8842 878.696 72.9145 878.654 72.9362C878.613 72.9579 878.567 72.9706 878.52 72.9733C878.056 73.1258 877.571 73.2062 877.082 73.2117Z" fill="#1E1B1B"/>
<path d="M889.009 71.8691C887.944 72.7442 886.605 73.2229 885.223 73.2229C883.841 73.2229 882.502 72.7442 881.436 71.8691C880.5 70.9294 879.974 69.66 879.974 68.3372C879.974 67.0145 880.5 65.7451 881.436 64.8054C882.504 63.9348 883.842 63.459 885.223 63.459C886.604 63.459 887.942 63.9348 889.009 64.8054C889.924 65.7538 890.435 67.017 890.435 68.331C890.435 69.645 889.924 70.9082 889.009 71.8566V71.8691ZM883.431 70.213C883.925 70.6582 884.568 70.9048 885.235 70.9048C885.903 70.9048 886.546 70.6582 887.04 70.213C887.488 69.7015 887.734 69.0465 887.734 68.3686C887.734 67.6908 887.488 67.0357 887.04 66.5243C886.546 66.079 885.903 65.8324 885.235 65.8324C884.568 65.8324 883.925 66.079 883.431 66.5243C882.983 67.0357 882.737 67.6908 882.737 68.3686C882.737 69.0465 882.983 69.7015 883.431 70.213Z" fill="#1E1B1B"/>
<path d="M902.111 63.7766C902.351 63.7766 902.464 63.902 902.464 64.1404V73.1364C902.486 73.7435 902.372 74.3479 902.13 74.9057C901.887 75.4635 901.523 75.9606 901.063 76.3608C900.043 77.2259 898.73 77.6742 897.39 77.6155C896.18 77.6578 894.986 77.3293 893.97 76.6745C893.536 76.3913 893.165 76.0223 892.881 75.5907C892.596 75.159 892.404 74.6738 892.316 74.1652C892.316 73.9143 892.316 73.8013 892.657 73.8013H894.778C894.868 73.8044 894.955 73.8332 895.029 73.8844C895.103 73.9356 895.16 74.007 895.194 74.0899C895.332 74.471 895.606 74.7882 895.964 74.9807C896.401 75.2046 896.886 75.3168 897.378 75.3069C897.674 75.3231 897.971 75.2803 898.25 75.1812C898.53 75.0821 898.787 74.9287 899.006 74.7298C899.206 74.5217 899.362 74.2755 899.464 74.0059C899.566 73.7364 899.612 73.4491 899.599 73.1614V72.371C898.84 72.9261 897.916 73.2131 896.974 73.1865C896.314 73.2104 895.657 73.1015 895.041 72.8665C894.425 72.6315 893.863 72.2752 893.389 71.819C892.479 70.8831 891.97 69.6325 891.97 68.331C891.97 67.0295 892.479 65.7788 893.389 64.843C893.865 64.3908 894.428 64.0379 895.044 63.8052C895.659 63.5725 896.315 63.4646 896.974 63.488C897.943 63.4625 898.892 63.7681 899.662 64.3537V64.153C899.656 64.1049 899.661 64.0561 899.677 64.0102C899.692 63.9643 899.718 63.9224 899.752 63.8876C899.786 63.8527 899.827 63.8258 899.873 63.8088C899.918 63.7918 899.967 63.785 900.016 63.7891L902.111 63.7766ZM897.214 70.9532C897.539 70.9632 897.862 70.9021 898.161 70.7742C898.46 70.6463 898.727 70.4547 898.943 70.213C899.362 69.6743 899.59 69.0123 899.59 68.331C899.59 67.6497 899.362 66.9877 898.943 66.449C898.727 66.2105 898.462 66.0218 898.166 65.8961C897.869 65.7704 897.548 65.7107 897.226 65.7213C896.897 65.711 896.57 65.7719 896.267 65.8997C895.964 66.0275 895.693 66.2192 895.472 66.4615C895.007 66.9768 894.762 67.6519 894.79 68.3435C894.767 69.0283 895.006 69.6963 895.459 70.213C895.681 70.4547 895.952 70.6459 896.255 70.7737C896.558 70.9014 896.885 70.9627 897.214 70.9532Z" fill="#1E1B1B"/>
<path d="M913.357 71.8694C912.289 72.7399 910.951 73.2157 909.57 73.2157C908.19 73.2157 906.851 72.7399 905.784 71.8694C904.868 70.9188 904.357 69.6536 904.357 68.3375C904.357 67.0214 904.868 65.7561 905.784 64.8056C906.852 63.9373 908.19 63.4629 909.57 63.4629C910.951 63.4629 912.288 63.9373 913.357 64.8056C914.272 65.754 914.783 67.0172 914.783 68.3312C914.783 69.6452 914.272 70.9084 913.357 71.8568V71.8694ZM907.765 70.2132C908.007 70.442 908.293 70.6208 908.605 70.7393C908.917 70.8577 909.249 70.9135 909.583 70.9033C909.915 70.9118 910.245 70.8553 910.555 70.7369C910.864 70.6184 911.147 70.4405 911.388 70.2132C911.828 69.6983 912.07 69.0446 912.07 68.3688C912.07 67.6931 911.828 67.0394 911.388 66.5245C911.147 66.2972 910.864 66.1193 910.555 66.0008C910.245 65.8824 909.915 65.8259 909.583 65.8344C909.249 65.8242 908.917 65.88 908.605 65.9984C908.293 66.1169 908.007 66.2957 907.765 66.5245C907.325 67.0394 907.084 67.6931 907.084 68.3688C907.084 69.0446 907.325 69.6983 907.765 70.2132Z" fill="#1E1B1B"/>
<path d="M919.34 61.6436C919.006 61.9339 918.578 62.0939 918.134 62.0939C917.691 62.0939 917.263 61.9339 916.929 61.6436C916.778 61.5017 916.657 61.3306 916.575 61.1407C916.492 60.9508 916.45 60.7463 916.45 60.5395C916.45 60.3327 916.492 60.1281 916.575 59.9383C916.657 59.7484 916.778 59.5773 916.929 59.4354C917.266 59.1523 917.693 58.9971 918.134 58.9971C918.576 58.9971 919.003 59.1523 919.34 59.4354C919.491 59.5773 919.612 59.7484 919.694 59.9383C919.776 60.1281 919.819 60.3327 919.819 60.5395C919.819 60.7463 919.776 60.9508 919.694 61.1407C919.612 61.3306 919.491 61.5017 919.34 61.6436ZM919.605 73.2116C918.855 73.2482 918.113 73.0364 917.497 72.6094C917.244 72.4173 917.041 72.168 916.905 71.882C916.769 71.5961 916.703 71.2819 916.714 70.9658V64.1404C916.708 64.0911 916.714 64.0412 916.73 63.9942C916.746 63.9473 916.773 63.9047 916.808 63.8696C916.843 63.8345 916.886 63.8079 916.933 63.7918C916.981 63.7756 917.031 63.7704 917.08 63.7765H919.201C919.441 63.7765 919.554 63.902 919.554 64.1404V70.0624C919.554 70.5392 919.769 70.7776 920.198 70.7776C920.389 70.7844 920.581 70.7633 920.766 70.7148C921.018 70.7148 921.157 70.7901 921.17 71.0159L921.359 72.5843C921.368 72.63 921.367 72.6771 921.357 72.7225C921.346 72.7679 921.326 72.8104 921.297 72.8473C921.268 72.8841 921.232 72.9144 921.19 72.9362C921.149 72.9579 921.103 72.9705 921.056 72.9732C920.588 73.1266 920.098 73.207 919.605 73.2116Z" fill="#1E1B1B"/>
<path d="M929.16 63.4758C929.822 63.4498 930.483 63.5564 931.103 63.7891C931.723 64.0219 932.29 64.3762 932.77 64.8309C933.662 65.7831 934.159 67.0362 934.159 68.3377C934.159 69.6391 933.662 70.8923 932.77 71.8445C932.292 72.3032 931.726 72.6609 931.106 72.896C930.485 73.1311 929.823 73.2386 929.16 73.212C928.215 73.2329 927.289 72.9466 926.522 72.3965V76.9258C926.522 77.1642 926.396 77.2772 926.156 77.2772H924.035C923.987 77.2861 923.937 77.2833 923.89 77.2688C923.843 77.2543 923.8 77.2287 923.766 77.1941C923.731 77.1595 923.705 77.117 923.69 77.0702C923.676 77.0235 923.673 76.9739 923.682 76.9258V66.6376C923.697 66.537 923.688 66.4343 923.656 66.3377C923.624 66.2412 923.569 66.1534 923.497 66.0815C923.424 66.0096 923.336 65.9555 923.239 65.9235C923.142 65.8915 923.039 65.8826 922.937 65.8973H922.521C922.243 65.8973 922.104 65.797 922.104 65.5962V64.1157C922.098 64.0241 922.123 63.933 922.176 63.8577C922.229 63.7823 922.306 63.7273 922.395 63.7017C922.831 63.5439 923.293 63.4674 923.758 63.4758C924.221 63.4351 924.686 63.5327 925.093 63.7563C925.5 63.9798 925.83 64.319 926.042 64.7305C926.449 64.3217 926.935 63.9996 927.471 63.7839C928.007 63.5681 928.582 63.4633 929.16 63.4758ZM927.191 70.2134C927.416 70.4472 927.686 70.6333 927.986 70.7604C928.285 70.8875 928.607 70.953 928.933 70.953C929.258 70.953 929.58 70.8875 929.88 70.7604C930.179 70.6333 930.449 70.4472 930.675 70.2134C931.149 69.6878 931.398 68.9991 931.369 68.2938C931.402 67.5878 931.152 66.8976 930.675 66.3741C930.449 66.1403 930.179 65.9542 929.88 65.8271C929.58 65.7 929.258 65.6345 928.933 65.6345C928.607 65.6345 928.285 65.7 927.986 65.8271C927.686 65.9542 927.416 66.1403 927.191 66.3741C926.732 66.9068 926.493 67.5928 926.522 68.2938C926.496 68.9942 926.735 69.6788 927.191 70.2134Z" fill="#1E1B1B"/>
<path d="M940.115 73.2118C938.982 73.2581 937.859 72.9887 936.872 72.4339C936.476 72.1968 936.138 71.874 935.885 71.4895C935.631 71.1051 935.468 70.6689 935.407 70.2132C935.407 69.9622 935.496 69.8368 935.774 69.8368H937.629C937.717 69.8402 937.803 69.8678 937.876 69.9165C937.95 69.9652 938.008 70.0331 938.045 70.1128C938.311 70.7903 939.005 71.1291 940.115 71.1291C940.503 71.1467 940.889 71.0691 941.239 70.9032C941.36 70.849 941.463 70.7632 941.539 70.6549C941.615 70.5466 941.659 70.42 941.668 70.2885C941.668 69.9622 941.466 69.7364 941.062 69.5858C940.583 69.4273 940.088 69.3221 939.585 69.2722C938.99 69.2052 938.4 69.1004 937.818 68.9585C937.253 68.8312 936.738 68.5384 936.341 68.1179C936.108 67.832 935.936 67.5015 935.836 67.1467C935.737 66.792 935.711 66.4207 935.762 66.0559C935.813 65.6911 935.939 65.3406 936.132 65.0262C936.325 64.7118 936.581 64.4403 936.884 64.2284C937.794 63.6523 938.861 63.3717 939.939 63.4254C940.982 63.3904 942.014 63.6468 942.918 64.1657C943.282 64.3707 943.595 64.654 943.836 64.9947C944.076 65.3355 944.236 65.7252 944.306 66.1355C944.306 66.3864 944.192 66.5119 943.965 66.5119H942.097C942.018 66.5165 941.94 66.4975 941.873 66.4572C941.805 66.4169 941.751 66.3572 941.718 66.2861C941.594 65.9889 941.359 65.7508 941.062 65.6211C940.728 65.4471 940.354 65.3608 939.977 65.3702C939.607 65.3502 939.238 65.4235 938.904 65.5835C938.786 65.6286 938.685 65.7076 938.613 65.8105C938.541 65.9134 938.501 66.0353 938.5 66.1606C938.508 66.3322 938.571 66.4967 938.68 66.6299C938.789 66.7631 938.938 66.8581 939.106 66.9009C939.59 67.0824 940.094 67.2087 940.608 67.2773C941.198 67.3545 941.784 67.4634 942.362 67.6035C942.928 67.7307 943.442 68.0235 943.839 68.4441C944.051 68.6758 944.215 68.947 944.321 69.242C944.427 69.537 944.474 69.8501 944.457 70.163C944.468 70.5967 944.366 71.0258 944.16 71.4084C943.954 71.7911 943.652 72.1141 943.284 72.3461C942.34 72.9479 941.235 73.2499 940.115 73.2118Z" fill="#1E1B1B"/>
<path d="M957.799 72.5846C957.806 72.6292 957.804 72.6747 957.793 72.7185C957.783 72.7623 957.763 72.8035 957.736 72.8398C957.709 72.876 957.675 72.9065 957.636 72.9295C957.597 72.9524 957.554 72.9674 957.509 72.9735C957.048 73.1231 956.567 73.2035 956.082 73.2119C955.603 73.2613 955.118 73.1868 954.676 72.9956C954.234 72.8043 953.849 72.5029 953.558 72.1204C952.666 72.8823 951.514 73.2733 950.339 73.2119C949.794 73.2369 949.25 73.1482 948.741 72.9516C948.232 72.755 947.771 72.4547 947.386 72.0702C947.004 71.6673 946.707 71.1918 946.514 70.6722C946.321 70.1526 946.235 69.5997 946.262 69.0464V64.1407C946.262 63.9023 946.376 63.7769 946.616 63.7769H948.736C948.976 63.7769 949.09 63.9023 949.09 64.1407V68.67C949.067 69.2343 949.261 69.7862 949.633 70.2133C949.818 70.4089 950.044 70.5628 950.294 70.6645C950.544 70.7663 950.814 70.8135 951.084 70.803C951.361 70.815 951.637 70.7724 951.897 70.6777C952.157 70.5829 952.395 70.4379 952.599 70.2509C952.791 70.0539 952.941 69.8197 953.038 69.5629C953.136 69.3061 953.18 69.0321 953.167 68.7579V64.1407C953.167 63.9023 953.28 63.7769 953.52 63.7769H955.666C955.906 63.7769 956.019 63.9023 956.019 64.1407V70.0502C956.019 70.5395 956.234 70.7779 956.65 70.7779C956.846 70.7854 957.041 70.7643 957.231 70.7152C957.279 70.7019 957.329 70.6995 957.377 70.7082C957.426 70.7169 957.472 70.7365 957.513 70.7654C957.553 70.7944 957.586 70.832 957.609 70.8755C957.632 70.9189 957.645 70.967 957.647 71.0163L957.799 72.5846Z" fill="#1E1B1B"/>
<path d="M977.855 72.5842C977.866 72.6292 977.867 72.676 977.858 72.7214C977.849 72.7668 977.83 72.8096 977.802 72.8468C977.774 72.884 977.739 72.9146 977.698 72.9365C977.657 72.9583 977.611 72.9708 977.565 72.9732C977.096 73.1248 976.606 73.2052 976.113 73.2116C975.363 73.2501 974.621 73.0381 974.005 72.6093C973.739 72.4257 973.523 72.1796 973.375 71.8929C973.228 71.6062 973.154 71.2877 973.16 70.9657V68.0173C973.186 67.4546 972.997 66.903 972.629 66.474C972.452 66.2779 972.234 66.1233 971.989 66.0213C971.745 65.9194 971.481 65.8726 971.216 65.8843C970.977 65.8754 970.739 65.9204 970.521 66.016C970.302 66.1117 970.108 66.2554 969.954 66.4364C969.62 66.8568 969.45 67.3822 969.474 67.9169V72.5466C969.474 72.785 969.36 72.9104 969.121 72.9104H966.987C966.938 72.9166 966.888 72.9113 966.84 72.8952C966.793 72.8791 966.75 72.8525 966.715 72.8174C966.68 72.7823 966.653 72.7397 966.637 72.6927C966.62 72.6458 966.615 72.5958 966.621 72.5466V68.0173C966.649 67.4608 966.474 66.913 966.129 66.474C965.975 66.2896 965.782 66.1412 965.564 66.0392C965.346 65.9373 965.108 65.8844 964.867 65.8843C964.609 65.874 964.353 65.9178 964.113 66.013C963.874 66.1081 963.658 66.2524 963.479 66.4364C963.118 66.8434 962.932 67.375 962.961 67.9169V72.5466C962.967 72.5958 962.962 72.6458 962.946 72.6927C962.929 72.7397 962.903 72.7823 962.867 72.8174C962.832 72.8525 962.789 72.8791 962.742 72.8952C962.695 72.9113 962.645 72.9166 962.595 72.9104H960.538C960.298 72.9104 960.184 72.785 960.184 72.5466V66.6371C960.199 66.5365 960.19 66.4338 960.158 66.3373C960.126 66.2407 960.071 66.153 959.999 66.081C959.927 66.0091 959.838 65.955 959.741 65.923C959.644 65.8911 959.541 65.8821 959.44 65.8969H959.023C958.745 65.8969 958.606 65.7965 958.606 65.5958V64.1152C958.6 64.0236 958.625 63.9326 958.678 63.8572C958.731 63.7819 958.808 63.7268 958.897 63.7012C959.333 63.5434 959.795 63.4669 960.26 63.4754C960.706 63.4376 961.153 63.526 961.551 63.7302C961.948 63.9344 962.28 64.2463 962.507 64.6297C962.932 64.2285 963.437 63.9189 963.989 63.7203C964.54 63.5217 965.127 63.4383 965.713 63.4754C966.281 63.4478 966.849 63.5538 967.368 63.7849C967.888 64.016 968.346 64.3655 968.704 64.8053C969.122 64.354 969.635 64.0006 970.207 63.7706C970.779 63.5406 971.395 63.4398 972.011 63.4754C972.562 63.4497 973.112 63.538 973.627 63.7345C974.142 63.931 974.61 64.2316 975.002 64.6171C975.386 65.0192 975.683 65.4946 975.876 66.0144C976.069 66.5341 976.154 67.0875 976.126 67.6409V70.0624C976.126 70.5391 976.34 70.7775 976.744 70.7775C976.94 70.7866 977.136 70.7654 977.325 70.7148C977.586 70.7148 977.724 70.8152 977.741 71.0159L977.855 72.5842Z" fill="#1E1B1B"/>
<path d="M829.851 62.1456C830.782 58.4251 832.939 55.1212 835.977 52.7601C839.016 50.3989 842.762 49.1162 846.619 49.1162C850.476 49.1162 854.222 50.3989 857.261 52.7601C860.299 55.1212 862.456 58.4251 863.387 62.1456H861.872C859.317 62.1082 856.815 62.8672 854.716 64.3161C854.595 64.4033 854.468 64.4829 854.337 64.5545H854.161C854.029 64.4829 853.903 64.4033 853.782 64.3161C851.664 62.9008 849.171 62.1448 846.619 62.1448C844.067 62.1448 841.573 62.9008 839.456 64.3161C839.335 64.4033 839.208 64.4829 839.077 64.5545H838.901C838.77 64.4829 838.643 64.4033 838.522 64.3161C836.423 62.8672 833.92 62.1082 831.365 62.1456H829.851ZM859.146 70.0123C859.924 69.4104 860.887 69.0955 861.872 69.1215H863.905V65.094H861.872C860.137 65.0732 858.442 65.6101 857.038 66.6247C856.249 67.2035 855.293 67.5157 854.312 67.5157C853.331 67.5157 852.375 67.2035 851.586 66.6247C850.147 65.629 848.435 65.0952 846.682 65.0952C844.929 65.0952 843.217 65.629 841.778 66.6247C840.989 67.2035 840.033 67.5157 839.052 67.5157C838.071 67.5157 837.116 67.2035 836.326 66.6247C834.905 65.5971 833.185 65.0595 831.428 65.094H829.333V69.1215H831.365C832.351 69.0955 833.314 69.4104 834.092 70.0123C835.528 71.0087 837.237 71.543 838.989 71.543C840.741 71.543 842.45 71.0087 843.886 70.0123C844.665 69.4123 845.628 69.0976 846.613 69.1215C847.598 69.0934 848.562 69.4085 849.339 70.0123C850.778 71.0081 852.489 71.5418 854.243 71.5418C855.996 71.5418 857.707 71.0081 859.146 70.0123ZM859.146 77.2141C859.924 76.6122 860.887 76.2973 861.872 76.3233H863.905V72.2958H861.872C860.137 72.2749 858.442 72.8118 857.038 73.8265C856.249 74.4053 855.293 74.7175 854.312 74.7175C853.331 74.7175 852.375 74.4053 851.586 73.8265C850.147 72.8308 848.435 72.297 846.682 72.297C844.929 72.297 843.217 72.8308 841.778 73.8265C840.989 74.4053 840.033 74.7175 839.052 74.7175C838.071 74.7175 837.116 74.4053 836.326 73.8265C834.905 72.7989 833.185 72.2613 831.428 72.2958H829.333V76.3233H831.365C832.351 76.2973 833.314 76.6122 834.092 77.2141C835.528 78.2105 837.237 78.7448 838.989 78.7448C840.741 78.7448 842.45 78.2105 843.886 77.2141C844.665 76.614 845.628 76.2994 846.613 76.3233C847.598 76.2952 848.562 76.6103 849.339 77.2141C850.778 78.2099 852.489 78.7436 854.243 78.7436C855.996 78.7436 857.707 78.2099 859.146 77.2141Z" fill="#1E1B1B"/>
<path d="M333.197 54.0293H337.004V72.5079H333.197V54.0293Z" fill="#1E1B1B"/>
<path d="M339.136 66.1774C339.136 64.848 339.527 63.5484 340.261 62.4436C340.995 61.3387 342.038 60.4782 343.257 59.9712C344.477 59.4642 345.818 59.3335 347.112 59.5957C348.405 59.8579 349.592 60.5011 350.522 61.4439C351.452 62.3866 352.084 63.5865 352.336 64.8913C352.589 66.1962 352.452 67.5473 351.942 68.7733C351.432 69.9994 350.572 71.0453 349.471 71.7783C348.371 72.5114 347.079 72.8987 345.76 72.8911C344.885 72.898 344.017 72.7288 343.208 72.3933C342.399 72.0579 341.664 71.563 341.047 70.9377C340.43 70.3124 339.943 69.5692 339.615 68.7518C339.287 67.9344 339.124 67.0592 339.136 66.1774ZM348.678 66.1774C348.663 65.6043 348.481 65.0483 348.154 64.579C347.827 64.1097 347.37 63.748 346.841 63.539C346.311 63.3301 345.731 63.2832 345.175 63.4042C344.619 63.5252 344.111 63.8088 343.714 64.2194C343.317 64.6301 343.049 65.1496 342.943 65.713C342.837 66.2764 342.899 66.8586 343.12 67.3869C343.341 67.9152 343.712 68.3662 344.186 68.6833C344.66 69.0004 345.216 69.1696 345.785 69.1698C346.172 69.1774 346.557 69.1044 346.915 68.9554C347.273 68.8064 347.597 68.5845 347.866 68.3036C348.135 68.0228 348.344 67.689 348.48 67.3232C348.615 66.9573 348.674 66.5673 348.653 66.1774H348.678Z" fill="#1E1B1B"/>
<path d="M367.447 59.8474V71.8808C367.447 76.1264 364.147 77.9295 360.81 77.9295C359.633 78.0269 358.452 77.7912 357.4 77.249C356.349 76.7068 355.469 75.8795 354.858 74.8604L358.069 72.9934C358.329 73.522 358.743 73.9581 359.255 74.2437C359.768 74.5293 360.354 74.6507 360.937 74.5919C361.308 74.638 361.685 74.6008 362.04 74.4831C362.395 74.3654 362.72 74.1701 362.992 73.9111C363.263 73.652 363.475 73.3357 363.611 72.9847C363.747 72.6338 363.805 72.2568 363.779 71.8808V70.7171C363.336 71.2584 362.774 71.6882 362.138 71.9723C361.501 72.2565 360.807 72.3871 360.112 72.354C358.429 72.354 356.815 71.6804 355.625 70.4813C354.436 69.2822 353.767 67.6558 353.767 65.96C353.767 64.2643 354.436 62.6379 355.625 61.4388C356.815 60.2397 358.429 59.5661 360.112 59.5661C360.807 59.5329 361.501 59.6636 362.138 59.9477C362.774 60.2319 363.336 60.6616 363.779 61.2029V59.9241L367.447 59.8474ZM363.779 65.9217C363.805 65.3099 363.648 64.7044 363.329 64.1832C363.01 63.6619 362.544 63.2487 361.99 62.9967C361.436 62.7447 360.82 62.6653 360.221 62.7689C359.622 62.8725 359.068 63.1543 358.629 63.5779C358.19 64.0016 357.888 64.5479 357.759 65.1464C357.631 65.745 357.684 66.3685 357.91 66.9368C358.136 67.5051 358.526 67.9922 359.029 68.3354C359.533 68.6787 360.126 68.8624 360.734 68.8629C361.13 68.8917 361.528 68.8363 361.902 68.7004C362.276 68.5646 362.618 68.3511 362.905 68.0739C363.192 67.7968 363.418 67.462 363.569 67.0913C363.719 66.7205 363.791 66.3221 363.779 65.9217Z" fill="#1E1B1B"/>
<path d="M369.591 66.1775C369.591 64.8491 369.982 63.5506 370.715 62.4463C371.447 61.342 372.489 60.4815 373.707 59.9737C374.925 59.4659 376.265 59.3337 377.558 59.5938C378.85 59.8539 380.037 60.4946 380.968 61.4348C381.9 62.375 382.533 63.5724 382.789 64.8756C383.044 66.1788 382.911 67.5291 382.404 68.7556C381.898 69.9822 381.042 71.0298 379.945 71.766C378.848 72.5021 377.559 72.8937 376.24 72.8912C375.364 72.8998 374.494 72.7319 373.683 72.3974C372.871 72.0628 372.134 71.5684 371.515 70.9431C370.896 70.3178 370.407 69.5742 370.076 68.7559C369.746 67.9375 369.581 67.0609 369.591 66.1775ZM379.134 66.1775C379.119 65.6038 378.936 65.0474 378.609 64.5778C378.281 64.1083 377.823 63.7466 377.293 63.538C376.762 63.3294 376.183 63.2833 375.626 63.4053C375.07 63.5274 374.561 63.8122 374.165 64.2241C373.768 64.6361 373.501 65.1567 373.397 65.721C373.293 66.2852 373.356 66.8678 373.579 67.3959C373.802 67.924 374.175 68.374 374.651 68.6896C375.126 69.0051 375.684 69.1722 376.253 69.1699C376.641 69.1775 377.025 69.1045 377.383 68.9555C377.741 68.8065 378.065 68.5846 378.334 68.3037C378.604 68.0229 378.812 67.6891 378.948 67.3233C379.083 66.9574 379.142 66.5674 379.121 66.1775H379.134Z" fill="#1E1B1B"/>
<path d="M384.654 56.4589C384.654 56.0087 384.786 55.5686 385.034 55.1943C385.283 54.8199 385.635 54.5282 386.048 54.3559C386.461 54.1836 386.915 54.1385 387.353 54.2264C387.791 54.3142 388.194 54.531 388.51 54.8493C388.826 55.1677 389.041 55.5732 389.128 56.0148C389.215 56.4563 389.17 56.914 388.999 57.33C388.828 57.7459 388.539 58.1014 388.167 58.3515C387.796 58.6016 387.359 58.7351 386.913 58.7351C386.316 58.7285 385.745 58.4865 385.323 58.0611C384.9 57.6356 384.66 57.0605 384.654 56.4589ZM385.022 59.8477H388.829V72.5077H385.022V59.8477Z" fill="#1E1B1B"/>
<path d="M405.122 66.1777C405.165 67.0196 405.042 67.8618 404.761 68.6557C404.479 69.4495 404.044 70.1795 403.482 70.8035C402.919 71.4274 402.24 71.9331 401.483 72.2915C400.725 72.6498 399.905 72.8536 399.069 72.8913C398.36 72.9389 397.65 72.8244 396.99 72.5565C396.331 72.2886 395.741 71.8741 395.262 71.344V77.5973H391.456V59.8476H395.262V61.0369C395.741 60.5084 396.332 60.0958 396.991 59.8301C397.651 59.5643 398.361 59.4523 399.069 59.5024C399.902 59.5401 400.719 59.7428 401.473 60.0987C402.228 60.4546 402.906 60.9568 403.468 61.5767C404.03 62.1965 404.465 62.9219 404.749 63.7113C405.033 64.5008 405.16 65.3388 405.122 66.1777ZM401.316 66.1777C401.301 65.5837 401.112 65.0075 400.773 64.5211C400.435 64.0347 399.961 63.6599 399.412 63.4436C398.863 63.2273 398.263 63.1791 397.687 63.3051C397.11 63.4311 396.584 63.7257 396.173 64.1519C395.762 64.5782 395.486 65.1171 395.378 65.7012C395.27 66.2852 395.335 66.8884 395.566 67.4352C395.796 67.982 396.182 68.448 396.674 68.7748C397.167 69.1016 397.744 69.2747 398.333 69.2723C398.737 69.2896 399.14 69.2207 399.516 69.07C399.891 68.9194 400.231 68.6905 400.512 68.3982C400.794 68.106 401.011 67.7572 401.15 67.3745C401.288 66.9918 401.344 66.5839 401.316 66.1777Z" fill="#1E1B1B"/>
<path d="M416.708 68.7095C416.708 71.6251 414.17 72.8655 411.48 72.8655C410.383 72.9651 409.281 72.7307 408.317 72.1927C407.354 71.6547 406.572 70.8378 406.074 69.8476L409.348 67.9805C409.478 68.4368 409.759 68.8344 410.145 69.1068C410.531 69.3791 410.997 69.5097 411.467 69.4767C412.368 69.4767 412.825 69.1954 412.825 68.6839C412.825 67.29 406.645 68.0317 406.645 63.6454C406.645 60.8832 408.955 59.5021 411.569 59.5021C412.563 59.4573 413.55 59.6845 414.426 60.1596C415.301 60.6346 416.033 61.3399 416.543 62.2004L413.269 63.9396C413.125 63.6096 412.888 63.329 412.589 63.1316C412.289 62.9341 411.939 62.8284 411.582 62.827C410.922 62.827 410.528 63.0828 410.528 63.5303C410.528 64.9882 416.708 64.0291 416.708 68.7095Z" fill="#1E1B1B"/>
<path d="M430.502 59.8477V72.5077H426.695V71.3184C426.263 71.8449 425.713 72.2615 425.092 72.5347C424.47 72.8079 423.794 72.9301 423.117 72.8913C420.579 72.8913 418.409 71.0627 418.409 67.6483V59.8477H422.216V67.0728C422.186 67.3749 422.221 67.6799 422.32 67.9668C422.418 68.2537 422.577 68.5156 422.786 68.7345C422.995 68.9533 423.248 69.1239 423.529 69.2345C423.809 69.345 424.11 69.3928 424.411 69.3747C425.781 69.3747 426.746 68.5562 426.746 66.8171V59.8477H430.502Z" fill="#1E1B1B"/>
<path d="M452.074 64.7325V72.5076H448.267V65.065C448.267 63.7862 447.671 62.9934 446.465 62.9934C445.26 62.9934 444.498 63.8757 444.498 65.3719V72.5076H440.692V65.065C440.692 63.7862 440.095 62.9934 438.89 62.9934C437.684 62.9934 436.923 63.8757 436.923 65.3719V72.5076H433.116V59.8475H436.923V61.0112C437.317 60.4971 437.832 60.09 438.421 59.8265C439.01 59.5631 439.655 59.4517 440.298 59.5023C440.942 59.4684 441.583 59.6039 442.16 59.8953C442.736 60.1868 443.227 60.6242 443.585 61.1647C444.003 60.6 444.556 60.1514 445.193 59.8607C445.83 59.57 446.53 59.4466 447.227 59.5023C450.196 59.5023 452.074 61.5739 452.074 64.7325Z" fill="#1E1B1B"/>
<path d="M310.52 50.7044V45.2695H293.516V82.6103H310.52V77.1754C307.037 77.1754 303.696 75.781 301.233 73.2988C298.77 70.8167 297.386 67.4502 297.386 63.9399C297.386 60.4296 298.77 57.0631 301.233 54.581C303.696 52.0989 307.037 50.7044 310.52 50.7044Z" fill="#1E1B1B"/>
<path d="M310.52 50.7041V77.1751C314.004 77.1751 317.344 75.7807 319.807 73.2985C322.27 70.8164 323.654 67.4499 323.654 63.9396C323.654 60.4293 322.27 57.0628 319.807 54.5807C317.344 52.0986 314.004 50.7041 310.52 50.7041Z" fill="#1E1B1B"/>
<path d="M455.272 59.7707C456.814 59.7707 458.064 58.5112 458.064 56.9574C458.064 55.4036 456.814 54.144 455.272 54.144C453.731 54.144 452.481 55.4036 452.481 56.9574C452.481 58.5112 453.731 59.7707 455.272 59.7707Z" fill="#1E1B1B"/>
<path d="M52.2793 62.4797C51.801 62.9627 51.4347 63.5456 51.2065 64.1869C50.9783 64.8282 50.8938 65.5121 50.9591 66.19L50.9364 66.1672C51.0035 66.965 50.8963 67.7679 50.6223 68.5199C50.3482 69.2719 49.914 69.9548 49.3499 70.521C48.7857 71.0872 48.1052 71.523 47.3559 71.798C46.6066 72.073 45.8066 72.1805 45.0116 72.1132L45.0343 72.136C44.0833 72.0472 43.1282 72.2548 42.2991 72.7307C41.4701 73.2066 40.8075 73.9276 40.4016 74.7952C39.9958 75.6629 39.8665 76.6351 40.0314 77.5792C40.1962 78.5233 40.6472 79.3934 41.3229 80.0709C41.9985 80.7483 42.8659 81.2002 43.8068 81.3648C44.7477 81.5294 45.7163 81.3987 46.5805 80.9907C47.4447 80.5826 48.1625 79.9169 48.6359 79.0845C49.1094 78.252 49.3154 77.2933 49.2261 76.339L49.2501 76.3618C49.183 75.5639 49.2901 74.761 49.5642 74.009C49.8382 73.257 50.2724 72.5741 50.8366 72.008C51.4007 71.4418 52.0812 71.006 52.8305 70.731C53.5798 70.456 54.3798 70.3484 55.1748 70.4158L55.1509 70.393C55.9277 70.4631 56.7096 70.3353 57.4241 70.0213C58.1386 69.7074 58.7625 69.2176 59.2382 68.5973C59.7138 67.9769 60.0257 67.2461 60.145 66.4725C60.2642 65.699 60.187 64.9077 59.9204 64.1721C59.6538 63.4365 59.2065 62.7803 58.62 62.2644C58.0334 61.7485 57.3266 61.3895 56.5649 61.2207C55.8033 61.0519 55.0116 61.0788 54.2631 61.2989C53.5146 61.519 52.8336 61.9251 52.2831 62.4797H52.2793Z" fill="#1E1B1B"/>
<path d="M42.9678 69.1486L42.9439 69.1258C43.6196 69.1941 44.3019 69.1109 44.9417 68.8822C45.5814 68.6534 46.1624 68.2848 46.6428 67.8031C47.1232 67.3213 47.4909 66.7384 47.7193 66.0966C47.9478 65.4548 48.0312 64.77 47.9636 64.0918L47.9876 64.1146C47.9205 63.3168 48.0277 62.5138 48.3017 61.7619C48.5757 61.0099 49.01 60.327 49.5741 59.7608C50.1383 59.1946 50.8188 58.7588 51.568 58.4838C52.3173 58.2088 53.1174 58.1013 53.9124 58.1686L53.8884 58.1458C54.8395 58.2354 55.7949 58.0285 56.6245 57.5531C57.454 57.0777 58.1172 56.3572 58.5236 55.4896C58.9301 54.6221 59.06 53.6498 58.8956 52.7055C58.7312 51.7611 58.2806 50.8906 57.6052 50.2127C56.9297 49.5349 56.0623 49.0826 55.1214 48.9176C54.1804 48.7527 53.2116 48.883 52.3471 49.291C51.4827 49.6989 50.7647 50.3645 50.291 51.197C49.8174 52.0295 49.6111 52.9883 49.7004 53.9428L49.6777 53.9187C49.7451 54.7166 49.638 55.5197 49.3641 56.2717C49.0901 57.0238 48.6559 57.7068 48.0917 58.2731C47.5275 58.8393 46.8469 59.2751 46.0975 59.55C45.3481 59.8249 44.548 59.9323 43.7529 59.8648L43.7757 59.8888C43.1 59.8205 42.4176 59.9037 41.7779 60.1325C41.1381 60.3613 40.5571 60.7298 40.0767 61.2116C39.5963 61.6933 39.2286 62.2762 39.0002 62.918C38.7717 63.5599 38.6883 64.2446 38.7559 64.9228L38.7332 64.9C38.8 65.6978 38.6927 66.5006 38.4186 67.2525C38.1445 68.0044 37.7103 68.6872 37.1462 69.2534C36.5821 69.8195 35.9017 70.2553 35.1525 70.5304C34.4033 70.8054 33.6033 70.9132 32.8084 70.846L32.8311 70.8688C31.88 70.7792 30.9246 70.9862 30.0951 71.4615C29.2655 71.9369 28.6023 72.6575 28.1959 73.525C27.7894 74.3926 27.6595 75.3648 27.8239 76.3092C27.9883 77.2535 28.4389 78.124 29.1144 78.8019C29.7898 79.4798 30.6572 79.932 31.5982 80.097C32.5392 80.262 33.5079 80.1316 34.3724 79.7237C35.2368 79.3158 35.9548 78.6502 36.4285 77.8177C36.9022 76.9852 37.1084 76.0263 37.0191 75.0719L37.0431 75.0947C36.976 74.2968 37.0831 73.4939 37.3572 72.7419C37.6312 71.9899 38.0654 71.307 38.6296 70.7408C39.1937 70.1746 39.8742 69.7389 40.6235 69.4639C41.3728 69.1889 42.1728 69.0813 42.9678 69.1486Z" fill="#1E1B1B"/>
<path d="M34.5087 66.6063C34.9871 66.1234 35.3534 65.5405 35.5814 64.8991C35.8094 64.2578 35.8935 63.5738 35.8277 62.896L35.8517 62.9188C35.7846 62.1208 35.8918 61.3176 36.166 60.5654C36.4401 59.8132 36.8746 59.1302 37.439 58.564C38.0035 57.9977 38.6843 57.562 39.4339 57.2872C40.1835 57.0124 40.9838 56.9051 41.779 56.9728L41.7551 56.95C42.7058 57.0394 43.6608 56.8323 44.49 56.357C45.3191 55.8817 45.982 55.1612 46.3882 54.294C46.7944 53.4267 46.9242 52.4548 46.7598 51.5108C46.5954 50.5668 46.1449 49.6966 45.4697 49.019C44.7945 48.3414 43.9275 47.8893 42.9868 47.7243C42.0462 47.5594 41.0778 47.6896 40.2136 48.0973C39.3494 48.5049 38.6316 49.1702 38.158 50.0023C37.6843 50.8344 37.478 51.7929 37.5671 52.747L37.5443 52.7242C37.6114 53.522 37.5043 54.325 37.2302 55.077C36.9562 55.829 36.522 56.5119 35.9578 57.078C35.3937 57.6442 34.7132 58.08 33.9639 58.355C33.2146 58.63 32.4146 58.7376 31.6196 58.6702L31.6423 58.693C30.8655 58.6231 30.0837 58.7511 29.3693 59.0652C28.6549 59.3792 28.0311 59.8691 27.5556 60.4896C27.0801 61.11 26.7683 61.8408 26.6492 62.6144C26.5301 63.3879 26.6075 64.1791 26.8741 64.9146C27.1408 65.6501 27.5882 66.3062 28.1747 66.8221C28.7613 67.3379 29.4682 67.6968 30.2297 67.8655C30.9913 68.0342 31.783 68.0072 32.5315 67.7871C33.2799 67.567 33.9609 67.1608 34.5113 66.6063H34.5087Z" fill="#1E1B1B"/>
<path d="M73.6079 53.9722H77.3566V72.2802H73.6079V53.9722Z" fill="#1E1B1B"/>
<path d="M79.4797 66.011C79.4744 64.6953 79.8584 63.4077 80.5829 62.3112C81.3074 61.2147 82.3399 60.3586 83.5496 59.8515C84.7593 59.3444 86.0917 59.2089 87.3782 59.4624C88.6646 59.7158 89.8472 60.3467 90.776 61.2752C91.7049 62.2037 92.3383 63.3879 92.596 64.6779C92.8537 65.968 92.7241 67.3057 92.2236 68.5218C91.7231 69.7378 90.8743 70.7774 89.7846 71.5089C88.6949 72.2405 87.4134 72.6309 86.1025 72.631C85.2322 72.6409 84.3687 72.4767 83.5625 72.1479C82.7562 71.819 82.0234 71.3322 81.4067 70.7159C80.7901 70.0995 80.3021 69.366 79.9712 68.5582C79.6403 67.7503 79.4732 66.8844 79.4797 66.011ZM88.9765 66.011C88.9609 65.4439 88.779 64.894 88.4536 64.4301C88.1283 63.9661 87.6739 63.6087 87.1473 63.4025C86.6206 63.1963 86.0451 63.1505 85.4926 63.2708C84.9402 63.3911 84.4353 63.6722 84.0412 64.0789C83.647 64.4855 83.3811 64.9998 83.2765 65.5574C83.172 66.1149 83.2336 66.691 83.4536 67.2136C83.6735 67.7363 84.0421 68.1822 84.5133 68.4957C84.9844 68.8093 85.5372 68.9765 86.1025 68.9764C86.4896 68.9868 86.8747 68.9166 87.2334 68.7701C87.5922 68.6237 87.9168 68.4043 88.1868 68.1257C88.4569 67.847 88.6664 67.5153 88.8024 67.1513C88.9383 66.7874 88.9976 66.3991 88.9765 66.011Z" fill="#1E1B1B"/>
<path d="M107.666 59.7409V71.6481C107.666 75.8613 104.392 77.6423 101.068 77.6423C99.8981 77.7302 98.7265 77.493 97.6818 76.9567C96.6372 76.4204 95.7598 75.6058 95.146 74.6021L98.3444 72.7464C98.6024 73.2696 99.0135 73.7012 99.5226 73.9835C100.032 74.2658 100.615 74.3853 101.193 74.326C101.563 74.3774 101.94 74.3447 102.295 74.2304C102.651 74.116 102.976 73.9229 103.247 73.6652C103.518 73.4076 103.728 73.0921 103.861 72.7421C103.995 72.3921 104.048 72.0165 104.017 71.6431V70.4967C103.578 71.0357 103.019 71.464 102.385 71.7471C101.752 72.0302 101.061 72.1603 100.368 72.1269C98.7191 72.0748 97.1553 71.3808 96.0075 70.1919C94.8596 69.0031 94.2178 67.4126 94.2178 65.7572C94.2178 64.1018 94.8596 62.5113 96.0075 61.3225C97.1553 60.1336 98.7191 59.4396 100.368 59.3874C101.061 59.3541 101.752 59.4842 102.385 59.7673C103.019 60.0504 103.578 60.4787 104.017 61.0177V59.7383L107.666 59.7409ZM104.018 65.7591C104.043 65.1528 103.887 64.5528 103.57 64.0363C103.252 63.5198 102.788 63.1105 102.237 62.861C101.686 62.6116 101.073 62.5334 100.477 62.6365C99.8808 62.7396 99.3293 63.0193 98.8931 63.4397C98.457 63.86 98.1562 64.4017 98.0294 64.995C97.9027 65.5884 97.9557 66.2063 98.1818 66.7691C98.4079 67.3319 98.7966 67.814 99.298 68.1532C99.7994 68.4924 100.39 68.6733 100.995 68.6726C101.389 68.7002 101.784 68.6447 102.155 68.5096C102.527 68.3746 102.866 68.163 103.15 67.8886C103.435 67.6141 103.659 67.2828 103.809 66.9161C103.958 66.5493 104.03 66.1552 104.018 65.7591Z" fill="#1E1B1B"/>
<path d="M109.789 66.011C109.784 64.6953 110.167 63.4077 110.892 62.3112C111.617 61.2147 112.649 60.3586 113.859 59.8515C115.068 59.3444 116.401 59.2089 117.687 59.4624C118.974 59.7158 120.156 60.3467 121.085 61.2752C122.014 62.2037 122.647 63.3879 122.905 64.6779C123.163 65.968 123.033 67.3057 122.533 68.5218C122.032 69.7378 121.183 70.7774 120.094 71.5089C119.004 72.2405 117.723 72.6309 116.412 72.631C115.541 72.6409 114.678 72.4767 113.872 72.1479C113.065 71.819 112.332 71.3322 111.716 70.7159C111.099 70.0995 110.611 69.366 110.28 68.5582C109.949 67.7503 109.782 66.8844 109.789 66.011ZM119.286 66.011C119.27 65.4439 119.088 64.894 118.763 64.4301C118.437 63.9661 117.983 63.6087 117.456 63.4025C116.93 63.1963 116.354 63.1505 115.802 63.2708C115.249 63.3911 114.744 63.6722 114.35 64.0789C113.956 64.4855 113.69 64.9998 113.586 65.5574C113.481 66.1149 113.543 66.691 113.763 67.2136C113.983 67.7363 114.351 68.1822 114.822 68.4957C115.293 68.8093 115.846 68.9765 116.412 68.9764C116.799 68.9868 117.184 68.9166 117.543 68.7701C117.901 68.6237 118.226 68.4043 118.496 68.1257C118.766 67.847 118.976 67.5153 119.111 67.1513C119.247 66.7874 119.307 66.3991 119.286 66.011Z" fill="#1E1B1B"/>
<path d="M124.783 56.3804C124.783 55.9339 124.915 55.4975 125.162 55.1263C125.409 54.7551 125.76 54.4657 126.171 54.2949C126.582 54.124 127.034 54.0793 127.471 54.1664C127.907 54.2535 128.308 54.4685 128.622 54.7842C128.937 55.0999 129.151 55.5021 129.238 55.94C129.325 56.3779 129.28 56.8317 129.11 57.2442C128.94 57.6567 128.651 58.0092 128.282 58.2572C127.912 58.5053 127.477 58.6377 127.032 58.6377C126.437 58.6317 125.869 58.392 125.448 57.97C125.028 57.5479 124.789 56.9772 124.783 56.3804ZM125.161 59.741H128.911V72.2816H125.156L125.161 59.741Z" fill="#1E1B1B"/>
<path d="M145.098 66.011C145.141 66.8398 145.021 67.669 144.744 68.451C144.467 69.2329 144.038 69.9522 143.483 70.5674C142.928 71.1826 142.257 71.6816 141.51 72.0358C140.762 72.3899 139.951 72.5922 139.125 72.6309C138.431 72.669 137.736 72.5514 137.092 72.2867C136.449 72.0221 135.871 71.6169 135.403 71.1007V77.2963H131.654V59.7407H135.403V60.9187C135.872 60.4029 136.449 59.9981 137.093 59.7337C137.736 59.4692 138.431 59.3518 139.125 59.3898C139.951 59.4284 140.762 59.6306 141.51 59.9847C142.258 60.3389 142.929 60.838 143.484 61.4534C144.039 62.0688 144.468 62.7883 144.745 63.5705C145.022 64.3526 145.142 65.1821 145.098 66.011ZM141.349 66.011C141.335 65.4241 141.148 64.8546 140.812 64.3737C140.477 63.8928 140.007 63.5219 139.463 63.3075C138.918 63.0931 138.322 63.0446 137.751 63.1682C137.179 63.2917 136.656 63.5818 136.247 64.0021C135.839 64.4225 135.563 64.9544 135.454 65.5312C135.346 66.1081 135.409 66.7043 135.636 67.2453C135.864 67.7863 136.245 68.2479 136.732 68.5725C137.22 68.8971 137.792 69.0702 138.377 69.0702C138.778 69.0881 139.179 69.0206 139.553 68.8722C139.927 68.7238 140.265 68.4977 140.546 68.2089C140.827 67.92 141.043 67.5749 141.182 67.1961C141.32 66.8173 141.377 66.4135 141.349 66.011Z" fill="#1E1B1B"/>
<path d="M156.666 68.518C156.666 71.4023 154.168 72.6311 151.469 72.6311C150.379 72.7302 149.284 72.4988 148.326 71.9667C147.368 71.4347 146.592 70.6265 146.096 69.6467L149.344 67.7909C149.475 68.2438 149.757 68.6378 150.143 68.9071C150.529 69.1763 150.996 69.3046 151.464 69.2704C152.363 69.2704 152.814 68.9943 152.814 68.4939C152.814 67.1132 146.665 67.8416 146.665 63.503C146.665 60.7682 148.965 59.39 151.564 59.39C152.541 59.3589 153.508 59.5915 154.365 60.0634C155.222 60.5353 155.937 61.2292 156.436 62.0729L153.238 63.8032C153.097 63.4748 152.864 63.195 152.566 62.9988C152.269 62.8026 151.92 62.6986 151.564 62.6999C150.914 62.6999 150.514 62.9533 150.514 63.4017C150.519 64.8318 156.666 63.878 156.666 68.518Z" fill="#1E1B1B"/>
<path d="M170.36 59.7407V72.2814H166.611V71.102C166.179 71.6224 165.629 72.0324 165.009 72.2984C164.388 72.5644 163.713 72.6788 163.039 72.6322C160.515 72.6322 158.369 70.8271 158.369 67.4386V59.7407H162.118V66.8876C162.086 67.1863 162.12 67.4882 162.217 67.7724C162.314 68.0567 162.471 68.3163 162.678 68.5333C162.885 68.7503 163.136 68.9195 163.415 69.0291C163.693 69.1386 163.992 69.1859 164.291 69.1677C165.666 69.1677 166.615 68.3659 166.615 66.5849V59.7445L170.36 59.7407Z" fill="#1E1B1B"/>
<path d="M191.855 64.5813V72.2804H188.106V64.9068C188.106 63.6527 187.507 62.8509 186.308 62.8509C185.058 62.8509 184.358 63.7287 184.358 65.2083V72.2804H180.61V64.9068C180.61 63.6527 180.01 62.8509 178.81 62.8509C177.561 62.8509 176.861 63.7287 176.861 65.2083V72.2804H173.113V59.7398H176.861V60.8925C177.25 60.3811 177.76 59.9756 178.345 59.7129C178.93 59.4503 179.571 59.3389 180.21 59.3889C180.851 59.3574 181.49 59.4933 182.064 59.7832C182.637 60.0731 183.126 60.5073 183.483 61.0433C183.898 60.4825 184.448 60.0367 185.082 59.7473C185.716 59.458 186.412 59.3347 187.107 59.3889C189.976 59.3902 191.855 61.4461 191.855 64.5813Z" fill="#1E1B1B"/>
<path d="M195.026 59.6638C196.562 59.6638 197.807 58.4139 197.807 56.8719C197.807 55.33 196.562 54.0801 195.026 54.0801C193.489 54.0801 192.244 55.33 192.244 56.8719C192.244 58.4139 193.489 59.6638 195.026 59.6638Z" fill="#1E1B1B"/>
<path d="M608.25 57.0315H612.057V72.3969H608.25V57.0315ZM613.567 66.5953C613.567 62.7951 615.902 60.5277 619.506 60.5277C623.11 60.5277 625.445 62.7951 625.445 66.5953C625.445 70.3955 623.16 72.6756 619.506 72.6756C615.851 72.6756 613.567 70.4588 613.567 66.5953ZM621.625 66.5953C621.625 64.5052 620.8 63.2765 619.506 63.2765C618.211 63.2765 617.399 64.5432 617.399 66.5953C617.399 68.6474 618.199 69.8888 619.506 69.8888C620.813 69.8888 621.625 68.7234 621.625 66.608V66.5953ZM626.879 73.1443H630.533C630.707 73.53 631.001 73.8494 631.372 74.0548C631.742 74.2602 632.169 74.3407 632.589 74.2843C634.036 74.2843 634.797 73.499 634.797 72.3589V70.2308H634.721C634.418 70.8831 633.925 71.4296 633.308 71.7999C632.69 72.1702 631.976 72.3473 631.257 72.3083C628.477 72.3083 626.637 70.1928 626.637 66.5573C626.637 62.9218 628.389 60.629 631.307 60.629C632.049 60.6 632.782 60.798 633.408 61.1964C634.034 61.5949 634.523 62.1748 634.81 62.8584V60.743H638.617V72.2702C638.617 75.0444 636.167 76.7671 632.551 76.7671C629.188 76.7671 627.094 75.2597 626.879 73.157V73.1443ZM634.81 66.5826C634.81 64.7332 633.959 63.5678 632.614 63.5678C631.269 63.5678 630.444 64.7205 630.444 66.5826C630.444 68.4447 631.257 69.4961 632.614 69.4961C633.972 69.4961 634.81 68.4701 634.81 66.5953V66.5826ZM640.051 66.5826C640.051 62.7824 642.385 60.515 645.989 60.515C649.593 60.515 651.941 62.7824 651.941 66.5826C651.941 70.3828 649.657 72.6629 645.989 72.6629C642.322 72.6629 640.051 70.4588 640.051 66.5953V66.5826ZM648.109 66.5826C648.109 64.4925 647.284 63.2638 645.989 63.2638C644.695 63.2638 643.946 64.5432 643.946 66.608C643.946 68.6727 644.746 69.9015 646.04 69.9015C647.334 69.9015 648.109 68.7234 648.109 66.608V66.5826ZM653.387 57.9815C653.377 57.5979 653.482 57.2199 653.687 56.8955C653.893 56.5711 654.19 56.3149 654.542 56.1594C654.893 56.0039 655.283 55.956 655.662 56.022C656.041 56.0879 656.391 56.2646 656.669 56.5297C656.947 56.7948 657.14 57.1364 657.224 57.5111C657.307 57.8857 657.277 58.2767 657.138 58.6344C656.998 58.992 656.755 59.3003 656.44 59.5201C656.125 59.7399 655.751 59.8613 655.367 59.869C655.112 59.8864 654.857 59.8511 654.616 59.7652C654.376 59.6794 654.155 59.5448 653.97 59.3699C653.784 59.195 653.636 58.9837 653.536 58.7491C653.436 58.5145 653.385 58.2618 653.387 58.0069V57.9815ZM653.387 60.7683H657.194V72.3969H653.387V60.7683ZM671.014 66.5826C671.014 70.3828 669.326 72.5489 666.433 72.5489C665.691 72.5965 664.952 72.4154 664.317 72.0303C663.681 71.6452 663.179 71.0745 662.879 70.3955H662.803V76.1211H658.996V60.743H662.803V62.8204H662.879C663.165 62.1302 663.658 61.5447 664.289 61.1435C664.92 60.7424 665.66 60.545 666.407 60.5783C669.326 60.629 671.064 62.8078 671.064 66.608L671.014 66.5826ZM667.207 66.5826C667.207 64.7332 666.356 63.5552 665.024 63.5552C663.692 63.5552 662.841 64.7459 662.829 66.5826C662.816 68.4194 663.692 69.5975 665.024 69.5975C666.356 69.5975 667.207 68.4447 667.207 66.608V66.5826ZM677.549 60.5023C680.709 60.5023 682.625 61.9971 682.714 64.3912H679.249C679.249 63.5678 678.564 63.0485 677.511 63.0485C676.457 63.0485 675.988 63.4538 675.988 64.0492C675.988 64.6445 676.407 64.8345 677.257 65.0119L679.693 65.5059C682.016 65.9999 683.005 66.9373 683.005 68.6981C683.005 71.1049 680.81 72.6503 677.574 72.6503C674.338 72.6503 672.219 71.1049 672.054 68.7361H675.721C675.836 69.5975 676.521 70.1041 677.638 70.1041C678.754 70.1041 679.262 69.7368 679.262 69.1288C679.262 68.5207 678.907 68.3941 677.993 68.204L675.798 67.7354C673.526 67.2667 672.333 66.0633 672.333 64.2899C672.359 62.0097 674.402 60.5277 677.549 60.5277V60.5023ZM695.708 72.3716H692.04V70.2055H691.964C691.763 70.9327 691.318 71.5693 690.704 72.0094C690.09 72.4495 689.344 72.6667 688.589 72.6249C688.01 72.6578 687.432 72.5663 686.892 72.3567C686.352 72.147 685.863 71.8242 685.459 71.4099C685.055 70.9956 684.745 70.4995 684.549 69.9552C684.353 69.4109 684.277 68.831 684.325 68.2547V60.743H688.132V67.3807C688.132 68.7614 688.843 69.4961 690.023 69.4961C690.3 69.4967 690.573 69.4382 690.825 69.3245C691.078 69.2109 691.303 69.0448 691.485 68.8372C691.668 68.6297 691.804 68.3856 691.884 68.1213C691.965 67.857 691.988 67.5785 691.952 67.3047V60.743H695.759L695.708 72.3716ZM697.548 60.743H701.228V62.9851H701.304C701.506 62.2675 701.941 61.637 702.54 61.1923C703.139 60.7476 703.869 60.5139 704.616 60.5277C705.376 60.467 706.13 60.6939 706.73 61.1633C707.329 61.6327 707.73 62.3103 707.852 63.0611H707.928C708.158 62.3023 708.635 61.6415 709.283 61.1828C709.931 60.7241 710.713 60.4936 711.507 60.5277C712.024 60.5103 712.54 60.6019 713.02 60.7964C713.5 60.9909 713.933 61.2841 714.292 61.6568C714.651 62.0296 714.928 62.4736 715.104 62.9599C715.28 63.4463 715.351 63.9641 715.313 64.4799V72.3969H711.507V65.4932C711.507 64.2265 710.936 63.6438 709.87 63.6438C709.632 63.6418 709.397 63.6907 709.179 63.7872C708.962 63.8838 708.768 64.0257 708.611 64.2033C708.453 64.381 708.336 64.5904 708.266 64.8173C708.196 65.0441 708.176 65.2833 708.207 65.5186V72.3969H704.591V65.4426C704.591 64.2772 704.02 63.6438 702.979 63.6438C702.739 63.6439 702.501 63.6949 702.282 63.7933C702.063 63.8918 701.867 64.0356 701.707 64.2151C701.548 64.3947 701.428 64.6059 701.357 64.835C701.285 65.064 701.263 65.3057 701.291 65.5439V72.3969H697.484L697.548 60.743Z" fill="#1E1B1B"/>
<path d="M597.604 57.7281C596.958 56.254 596.103 54.8804 595.066 53.6492C593.532 51.7749 591.618 50.246 589.45 49.1632C587.282 48.0804 584.908 47.4683 582.486 47.367C580.064 47.2658 577.648 47.6778 575.397 48.5759C573.145 49.474 571.11 50.8379 569.425 52.5777C567.74 54.3175 566.443 56.3939 565.619 58.6701C564.796 60.9463 564.465 63.3708 564.648 65.784C564.831 68.1972 565.524 70.5443 566.681 72.6709C567.838 74.7976 569.433 76.6555 571.361 78.1224C572.598 79.0824 573.966 79.8629 575.422 80.4405C577.464 81.2758 579.649 81.706 581.856 81.7072C586.41 81.6972 590.775 79.8848 593.994 76.6673C597.212 73.4499 599.021 69.0899 599.025 64.5431C599.028 62.1977 598.544 59.8772 597.604 57.7281ZM581.843 50.8497C583.824 50.8495 585.782 51.2818 587.579 52.1164C587.141 52.3054 586.68 52.4374 586.208 52.5091C584.656 52.7335 583.218 53.4529 582.108 54.5602C580.999 55.6674 580.278 57.103 580.054 58.6528C579.955 59.5219 579.559 60.3305 578.932 60.942C578.306 61.5535 577.487 61.9306 576.615 62.0096C575.062 62.2339 573.624 62.9534 572.515 64.0607C571.406 65.1679 570.685 66.6035 570.46 68.1532C570.384 68.9796 570.031 69.7562 569.458 70.3573C568.469 68.2714 568.024 65.9696 568.166 63.6661C568.308 61.3627 569.031 59.1325 570.269 57.183C571.506 55.2336 573.217 53.6283 575.243 52.5165C577.269 51.4048 579.544 50.8227 581.856 50.8244L581.843 50.8497ZM571.348 73.4102C571.501 73.2708 571.653 73.1441 571.805 72.9921C572.934 71.8995 573.659 70.4572 573.861 68.9006C573.943 68.0256 574.334 67.2083 574.965 66.5952C575.572 65.9645 576.389 65.5771 577.262 65.5058C578.814 65.2814 580.253 64.562 581.362 63.4547C582.471 62.3475 583.192 60.9119 583.416 59.3621C583.471 58.4469 583.865 57.5847 584.52 56.9427C585.142 56.3243 585.967 55.951 586.843 55.8913C588.269 55.6954 589.599 55.0625 590.65 54.0799C591.846 55.0705 592.859 56.2623 593.644 57.6014C593.596 57.6664 593.541 57.7259 593.479 57.7787C592.874 58.4149 592.058 58.8108 591.183 58.8934C589.628 59.1139 588.188 59.8321 587.078 60.94C585.968 62.048 585.249 63.4858 585.028 65.0371C584.939 65.9091 584.55 66.7235 583.928 67.3422C583.306 67.9609 582.488 68.3459 581.614 68.4319C580.057 68.6545 578.614 69.3726 577.498 70.4794C576.383 71.5862 575.654 73.0227 575.422 74.5756C575.354 75.1946 575.141 75.7891 574.8 76.311C573.498 75.5393 572.332 74.5593 571.348 73.4102ZM581.843 78.2997C580.555 78.3011 579.274 78.122 578.036 77.7677C578.459 76.9798 578.735 76.1212 578.848 75.2343C578.937 74.3641 579.324 73.5513 579.943 72.9328C580.563 72.3144 581.377 71.9282 582.249 71.8394C583.804 71.6176 585.245 70.8992 586.356 69.7918C587.468 68.6843 588.191 67.2473 588.416 65.6958C588.505 64.8257 588.892 64.0128 589.512 63.3944C590.131 62.7759 590.945 62.3897 591.817 62.3009C592.987 62.149 594.102 61.7142 595.066 61.0342C595.601 63.0583 595.664 65.1779 595.251 67.2302C594.838 69.2826 593.959 71.2132 592.683 72.874C591.406 74.5348 589.765 75.8817 587.886 76.8112C586.007 77.7407 583.94 78.2283 581.843 78.2364V78.2997Z" fill="#1E1B1B"/>
<path d="M1132.46 57.2719H1136.53V73.7394H1132.46V57.2719ZM1138.15 67.5451C1138.15 63.4662 1140.69 61.0214 1144.5 61.0214C1148.31 61.0214 1150.84 63.4662 1150.84 67.5451C1150.84 71.624 1148.39 74.0941 1144.5 74.0941C1140.6 74.0941 1138.15 71.7126 1138.15 67.5451ZM1146.81 67.5451C1146.81 65.303 1145.93 63.9856 1144.54 63.9856C1143.14 63.9856 1142.28 65.2523 1142.28 67.5451C1142.28 69.8379 1143.14 71.0919 1144.54 71.0919C1145.93 71.0919 1146.83 69.8379 1146.83 67.5578L1146.81 67.5451ZM1152.47 74.5881H1156.4C1156.58 75.0109 1156.89 75.3635 1157.29 75.5923C1157.69 75.821 1158.15 75.9132 1158.61 75.8548C1160.17 75.8548 1160.98 75.0188 1160.98 73.7774V71.4973H1161C1160.66 72.2073 1160.12 72.799 1159.44 73.1947C1158.76 73.5904 1157.97 73.7715 1157.19 73.7141C1154.21 73.7141 1152.23 71.4466 1152.23 67.5451C1152.23 63.6436 1154.12 61.2114 1157.3 61.2114C1158.11 61.1685 1158.91 61.3756 1159.59 61.8044C1160.27 62.2332 1160.8 62.8625 1161.11 63.6056H1161V61.3128H1165.03V73.6507C1165.03 76.6275 1162.39 78.4896 1158.51 78.4896C1154.98 78.477 1152.72 76.8682 1152.49 74.6008L1152.47 74.5881ZM1161 67.5451C1161 65.5563 1160.08 64.3023 1158.64 64.3023C1157.19 64.3023 1156.3 65.569 1156.3 67.5451C1156.3 69.5212 1157.18 70.6866 1158.64 70.6866C1160.09 70.6866 1161 69.6099 1161 67.5451ZM1166.64 67.5451C1166.64 63.4662 1169.18 61.0214 1172.99 61.0214C1176.79 61.0214 1179.33 63.4662 1179.33 67.5451C1179.33 71.624 1176.87 74.0941 1172.99 74.0941C1169.1 74.0941 1166.67 71.7126 1166.67 67.5451H1166.64ZM1175.3 67.5451C1175.3 65.303 1174.41 63.9856 1173.03 63.9856C1171.64 63.9856 1170.77 65.2523 1170.77 67.5451C1170.77 69.8379 1171.63 71.0919 1173.03 71.0919C1174.42 71.0919 1175.32 69.8379 1175.32 67.5578L1175.3 67.5451ZM1180.98 58.3106C1180.96 57.8964 1181.07 57.4864 1181.29 57.1333C1181.51 56.7802 1181.82 56.5002 1182.2 56.3293C1182.58 56.1584 1183 56.1044 1183.41 56.1742C1183.82 56.2441 1184.2 56.4346 1184.5 56.7213C1184.8 57.008 1185.01 57.3777 1185.1 57.783C1185.18 58.1882 1185.15 58.6103 1184.99 58.9951C1184.84 59.3799 1184.57 59.7097 1184.23 59.9422C1183.88 60.1746 1183.48 60.299 1183.06 60.2994C1182.8 60.3061 1182.53 60.2602 1182.29 60.1642C1182.04 60.0682 1181.81 59.9241 1181.62 59.7403C1181.43 59.5565 1181.28 59.3365 1181.17 59.0933C1181.07 58.85 1181.01 58.5883 1181.01 58.3233L1180.98 58.3106ZM1180.98 61.3001H1185.11V73.7901H1181.05L1180.98 61.3001ZM1199.94 67.5451C1199.94 71.6113 1198.11 73.9674 1195 73.9674C1194.21 74.0164 1193.42 73.8204 1192.74 73.4059C1192.05 72.9913 1191.52 72.3782 1191.2 71.6493H1191.12V77.8056H1187.05V61.3381H1191.1V63.5676H1191.17C1191.48 62.8243 1192.01 62.1944 1192.69 61.7638C1193.38 61.3331 1194.17 61.1225 1194.98 61.1608C1198.18 61.1354 1200.02 63.4789 1200.02 67.5578L1199.94 67.5451ZM1195.79 67.5451C1195.79 65.569 1194.86 64.2896 1193.43 64.2896C1192 64.2896 1191.1 65.5563 1191.08 67.5451C1191.07 69.5339 1192 70.7879 1193.43 70.7879C1194.86 70.7879 1195.87 69.6099 1195.87 67.5578L1195.79 67.5451ZM1206.89 61.0088C1210.31 61.0088 1212.43 62.6175 1212.45 65.2016H1208.73C1208.73 64.3023 1207.99 63.7449 1206.87 63.7449C1205.75 63.7449 1205.22 64.1756 1205.22 64.8216C1205.22 65.4677 1205.69 65.6703 1206.63 65.8603L1209.24 66.3924C1211.78 66.9244 1212.79 67.9378 1212.79 69.8252C1212.79 72.3587 1210.45 74.0814 1206.96 74.0814C1203.47 74.0814 1201.2 72.4093 1201.03 69.8632H1204.98C1205.09 70.7879 1205.83 71.3326 1207.02 71.3326C1208.21 71.3326 1208.77 70.9526 1208.77 70.2812C1208.77 69.6099 1208.39 69.4959 1207.41 69.2932L1205.05 68.7992C1202.61 68.2798 1201.32 67.0004 1201.32 65.0876C1201.4 62.6049 1203.53 61.0214 1206.97 61.0214L1206.89 61.0088ZM1226.44 73.7774H1222.49V71.434H1222.41C1222.19 72.2156 1221.71 72.8988 1221.05 73.3708C1220.39 73.8429 1219.58 74.0757 1218.77 74.0308C1218.16 74.0507 1217.55 73.9409 1216.98 73.7087C1216.41 73.4764 1215.9 73.1269 1215.48 72.6832C1215.05 72.2394 1214.73 71.7113 1214.53 71.1336C1214.32 70.5559 1214.24 69.9417 1214.29 69.3312V61.3128H1218.37V68.4571C1218.37 69.9265 1219.14 70.7246 1220.41 70.7246C1220.71 70.7224 1221 70.6564 1221.27 70.5311C1221.54 70.4059 1221.78 70.2242 1221.97 69.9985C1222.17 69.7728 1222.31 69.5082 1222.39 69.2226C1222.48 68.937 1222.5 68.6371 1222.45 68.3431V61.3128H1226.51L1226.44 73.7774ZM1228.4 61.3001H1232.36V63.7069H1232.45C1232.67 62.9359 1233.14 62.2591 1233.78 61.7823C1234.43 61.3055 1235.21 61.0558 1236.02 61.0721C1236.82 61.0022 1237.63 61.2348 1238.27 61.7244C1238.91 62.214 1239.35 62.9254 1239.49 63.7196H1239.67C1239.93 62.9212 1240.44 62.2288 1241.12 61.75C1241.81 61.2713 1242.64 61.0329 1243.48 61.0721C1244.04 61.0509 1244.59 61.1474 1245.11 61.3553C1245.63 61.5631 1246.09 61.8777 1246.48 62.2782C1246.87 62.6788 1247.16 63.1565 1247.35 63.6799C1247.54 64.2033 1247.62 64.7607 1247.58 65.3157V73.7901H1243.48V66.3544C1243.48 65.0876 1242.88 64.3783 1241.73 64.3783C1241.47 64.3741 1241.22 64.4252 1240.98 64.5282C1240.75 64.6311 1240.54 64.7835 1240.37 64.9748C1240.2 65.1661 1240.07 65.3919 1240 65.6365C1239.92 65.8812 1239.9 66.139 1239.94 66.3924V73.7901H1236.06V66.3164C1236.06 65.0496 1235.43 64.3783 1234.32 64.3783C1234.06 64.3762 1233.8 64.4294 1233.57 64.5344C1233.33 64.6393 1233.12 64.7936 1232.95 64.9867C1232.77 65.1799 1232.65 65.4075 1232.57 65.6543C1232.49 65.9011 1232.47 66.1614 1232.5 66.4177V73.7901H1228.43L1228.4 61.3001Z" fill="#1E1B1B"/>
<path d="M1124.4 58.3489C1124.4 55.8277 1123.64 53.3653 1122.21 51.2841C1120.78 49.203 1118.76 47.6001 1116.41 46.6855C1114.06 45.7709 1111.48 45.5873 1109.02 46.1585C1106.56 46.7298 1104.33 48.0294 1102.62 49.8872H1086.79V83.2528H1120.22V67.6594C1121.54 66.4876 1122.59 65.0528 1123.31 63.4485C1124.02 61.8442 1124.4 60.1066 1124.4 58.3489ZM1117.96 58.3489C1117.97 59.557 1117.61 60.7387 1116.94 61.7445C1116.27 62.7502 1115.31 63.5347 1114.2 63.9988C1113.08 64.4629 1111.85 64.5856 1110.66 64.3514C1109.48 64.1173 1108.38 63.5368 1107.53 62.6834C1106.67 61.83 1106.09 60.7421 1105.85 59.5574C1105.61 58.3727 1105.73 57.1444 1106.2 56.028C1106.66 54.9116 1107.44 53.9573 1108.45 53.2858C1109.45 52.6143 1110.64 52.2559 1111.85 52.2559C1113.47 52.2559 1115.02 52.8975 1116.17 54.0398C1117.32 55.182 1117.96 56.7318 1117.96 58.3489ZM1113.79 76.8305H1093.22V56.3095H1099.49C1099.37 56.9827 1099.3 57.6649 1099.3 58.3489C1099.3 61.6705 1100.62 64.8551 1102.98 67.2038C1105.33 69.5525 1108.52 70.8735 1111.85 70.8769C1112.5 70.8734 1113.15 70.8184 1113.79 70.7122V76.8305Z" fill="#1E1B1B"/>
</g>
</svg>
