<svg width="20" height="20" viewBox="0 0 20 20" fill="none" xmlns="http://www.w3.org/2000/svg">
<path d="M17.76 13.9203C16.4636 12.8869 15.148 12.261 13.8675 13.2928L13.1029 13.9164C12.5435 14.3691 11.5034 16.4842 7.48203 12.1728C3.46146 7.86675 5.85404 7.19631 6.41429 6.74752L7.18306 6.12312C8.45681 5.08896 7.97612 3.78709 7.05744 2.44698L6.50306 1.63526C5.58019 0.298264 4.57526 -0.579797 3.29816 0.452802L2.60811 1.01476C2.04367 1.39799 0.465926 2.64366 0.0832146 5.01013C-0.377379 7.84958 1.07559 11.1011 4.40442 14.6688C7.72907 18.238 10.9842 20.0308 14.0677 19.9996C16.6303 19.9738 18.1779 18.6923 18.6619 18.2263L19.3545 17.6636C20.6282 16.6317 19.8368 15.5812 18.5396 14.5455L17.76 13.9203Z" fill="white"/>
</svg>
