<svg width="46" height="46" viewBox="0 0 46 46" fill="none" xmlns="http://www.w3.org/2000/svg">
<path d="M45.8549 20.4463C45.7822 19.7998 45.0281 19.3134 44.376 19.3134C42.2685 19.3134 40.3981 18.0764 39.6137 16.1619C38.813 14.2014 39.3296 11.9154 40.8998 10.475C41.3944 10.0228 41.4547 9.26565 41.0401 8.74006C39.9611 7.37021 38.7352 6.13264 37.3964 5.06019C36.8726 4.64004 36.1029 4.69853 35.6484 5.20163C34.2775 6.71989 31.8149 7.28407 29.9119 6.49013C27.9323 5.65719 26.6828 3.65055 26.8056 1.4967C26.846 0.819725 26.351 0.231479 25.6764 0.1529C23.9582 -0.0460337 22.2249 -0.0518028 20.5018 0.139372C19.8357 0.212978 19.3412 0.787299 19.3633 1.45572C19.4379 3.58848 18.1743 5.55971 16.2138 6.36281C14.3336 7.13089 11.8882 6.57089 10.5201 5.06596C10.0679 4.57022 9.31176 4.50935 8.78439 4.92054C7.40618 6.00214 6.1527 7.2405 5.06374 8.59922C4.63941 9.12739 4.70208 9.89288 5.2008 10.3467C6.80202 11.7967 7.31825 14.1023 6.48691 16.0857C5.69316 17.9765 3.72989 19.1946 1.48254 19.1946C0.753246 19.1711 0.234228 19.6611 0.15366 20.3244C-0.0484564 22.0517 -0.0506446 23.8127 0.143912 25.5541C0.216523 26.2034 0.992961 26.6857 1.65223 26.6857C3.65549 26.6347 5.57758 27.8741 6.38505 29.837C7.18855 31.7975 6.67132 34.0824 5.09855 35.5249C4.60659 35.977 4.54373 36.7324 4.9591 37.2574C6.02717 38.6187 7.2542 39.857 8.597 40.9386C9.12417 41.3632 9.89086 41.3037 10.3478 40.8C11.724 39.2781 14.1862 38.715 16.0815 39.5105C18.0668 40.3413 19.3157 42.3477 19.1938 44.5021C19.1538 45.1791 19.6499 45.7692 20.3221 45.8459C21.2014 45.9488 22.0853 45.9997 22.9719 45.9997C23.8134 45.9997 24.6551 45.9538 25.4968 45.8601C26.1636 45.7865 26.6574 45.2115 26.6349 44.5429C26.5579 42.4112 27.8243 40.4397 29.7824 39.6382C31.6751 38.8652 34.1096 39.4309 35.4785 40.9337C35.9331 41.4284 36.6846 41.4885 37.2142 41.0789C38.59 40.0001 39.8411 38.7623 40.9348 37.4C41.3596 36.8728 41.2993 36.1064 40.7978 35.6518C39.197 34.2028 38.6779 31.8961 39.5093 29.9147C40.2907 28.0493 42.181 26.7969 44.2141 26.7969L44.4985 26.8044C45.1586 26.8579 45.7651 26.3497 45.8449 25.6763C46.048 23.9473 46.0502 22.1884 45.8549 20.4463ZM22.9996 36.2595C15.6762 36.2595 9.73987 30.3232 9.73987 23C9.73987 15.6769 15.6764 9.7405 22.9996 9.7405C30.3227 9.7405 36.2593 15.6769 36.2593 23C36.2593 25.4857 35.574 27.8106 34.3838 29.7988L28.5777 23.9925C28.998 23.0014 29.22 21.927 29.2198 20.8181C29.2198 18.6468 28.3742 16.6055 26.8386 15.0703C25.3034 13.5352 23.2622 12.6897 21.0912 12.6897C20.3667 12.6897 19.6456 12.786 18.9479 12.976C18.6423 13.0593 18.3925 13.3112 18.3111 13.6173C18.228 13.9304 18.3217 14.2513 18.5664 14.4962C18.5664 14.4962 21.4328 17.3847 22.3918 18.3436C22.4923 18.444 22.4921 18.6838 22.478 18.7701L22.469 18.8332C22.3723 19.8875 22.1859 21.1531 22.0322 21.6395C22.0115 21.66 21.992 21.6773 21.9709 21.6984C21.9488 21.7205 21.9285 21.7418 21.9072 21.7636C21.4145 21.9218 20.1294 22.1104 19.0583 22.2063L19.0585 22.2005L19.0104 22.2126C19.0018 22.2136 18.9859 22.2148 18.9648 22.2148C18.849 22.2148 18.6787 22.1824 18.524 22.0278C17.5257 21.0296 14.7717 18.2952 14.7717 18.2952C14.5246 18.049 14.2712 17.9972 14.1023 17.9972C13.7086 17.9972 13.3561 18.2817 13.2451 18.6897C12.4869 21.4953 13.2906 24.5131 15.343 26.5657C16.8786 28.1011 18.9201 28.9465 21.0914 28.9465C22.2003 28.9465 23.2747 28.7247 24.2656 28.3044L30.1347 34.1735C28.0742 35.492 25.6273 36.2595 22.9996 36.2595Z" fill="#1E1B1B"/>
</svg>
