<svg width="44" height="49" viewBox="0 0 44 49" fill="none" xmlns="http://www.w3.org/2000/svg">
<path d="M0.252823 27.0168C0.468002 26.7485 0.789085 26.5918 1.12594 26.5918H5.40814C6.46489 23.7426 7.8416 20.9509 9.40644 19.8971C14.8198 16.2566 29.1783 16.2566 34.5916 19.8971C36.1575 20.952 37.5286 23.7472 38.591 26.5918H42.8732C43.2134 26.5918 43.5334 26.7485 43.7463 27.0168C43.9604 27.284 44.046 27.6375 43.9761 27.9773L43.3419 31.1191C43.2337 31.6546 42.7718 32.037 42.2389 32.037H40.9704C42.195 33.4812 42.7887 35.2997 42.7966 37.1193C42.8045 39.3674 41.9697 41.399 40.4431 42.8363C40.4262 42.8513 40.4093 42.8616 40.3936 42.8766V47.2726C40.3936 48.225 39.6365 49.0001 38.7037 49.0001H34.7538C33.821 49.0001 33.0639 48.225 33.0639 47.2726V45.5059H10.9364V47.2726C10.9364 48.225 10.1793 49.0001 9.24647 49.0001H5.29661C4.36604 49.0001 3.60671 48.225 3.60671 47.2726V42.963C1.98666 41.4462 1.21269 39.3594 1.20255 37.276C1.19579 35.3941 1.81654 33.5088 3.11326 32.0347H1.76022C1.22508 32.0347 0.763172 31.6523 0.657272 31.1156L0.0218735 27.975C-0.0434723 27.6375 0.0387688 27.2863 0.252823 27.0168ZM32.7361 22.7821C28.4212 19.8787 15.5791 19.8787 11.2665 22.7821C10.4283 23.3441 9.35012 25.6163 8.36209 28.3988H35.6382C34.6524 25.6175 33.5743 23.3464 32.7361 22.7821ZM37.79 37.5524C37.79 35.6751 36.3006 34.1549 34.4654 34.1549C32.6279 34.1549 31.1408 35.6751 31.1408 37.5524C31.1408 39.4296 32.6279 40.951 34.4654 40.951C36.3006 40.951 37.79 39.4296 37.79 37.5524ZM9.49094 40.951C11.3262 40.951 12.8155 39.4296 12.8155 37.5524C12.8155 35.6751 11.3262 34.1549 9.49094 34.1549C7.65345 34.1549 6.16634 35.6751 6.16634 37.5524C6.16634 39.4296 7.65571 40.951 9.49094 40.951Z" fill="#1E1B1B"/>
<mask id="mask0_482:1528" style="mask-type:alpha" maskUnits="userSpaceOnUse" x="6" y="0" width="25" height="28">
<path d="M26.5548 14.4818C26.5055 15.0402 26.198 15.5656 25.6835 15.8602C25.2563 16.1048 24.8161 16.2847 24.3664 16.4064C24.6198 17.2806 25.0853 18.5457 25.914 19.9007C26.7012 21.1883 26.7105 22.7423 25.9388 24.1645C24.8019 26.2606 22.2915 27.6691 19.691 27.6691C17.9051 27.6691 16.3173 26.8283 15.2205 25.3014C13.653 23.1184 13.3056 19.8968 14.2919 16.6853C15.2062 13.7082 13.9834 12.12 13.1744 11.4373C12.5149 12.0871 11.6203 12.4878 10.6316 12.4878C8.60565 12.4878 6.96218 10.8082 6.96218 8.73616C6.96218 6.66411 8.60565 4.98501 10.6316 4.98501C12.6585 4.98501 14.301 6.66459 14.301 8.73616C14.301 9.0279 14.2655 9.31025 14.204 9.58283C15.7317 10.7252 17.4954 13.2966 16.2611 17.3169C15.4828 19.852 15.7216 22.4327 16.8852 24.0525C17.3785 24.74 18.2664 25.5593 19.6916 25.5593C21.5355 25.5593 23.3624 24.5648 24.134 23.1416C24.4186 22.6166 24.6543 21.8214 24.1635 21.0185C23.0674 19.2249 22.5188 17.5512 22.2587 16.5282C21.6495 16.4344 21.0547 16.2335 20.4825 15.9212C19.9725 15.6428 19.6596 15.1389 19.5907 14.5943C17.1663 12.3538 16.0469 8.31686 15.9825 8.0806C15.8518 7.59595 16.0752 7.0984 16.4917 6.87154C16.1569 3.84091 17.2541 2.31345 17.9162 1.69128C17.8657 1.40011 17.9797 1.08865 18.2299 0.921722L19.4465 0.108913C19.7642 -0.103252 20.1637 0.00382639 20.3379 0.349531L20.9176 1.49477C21.0922 1.84057 20.9383 2.20932 20.5735 2.31933L19.1981 2.7338C18.8494 2.83889 18.4316 2.66855 18.2341 2.35613C17.686 2.94644 16.8967 4.26069 17.1686 6.76778C17.5424 6.84052 17.8628 7.11889 17.9713 7.51913C18.3018 8.7317 19.2563 11.2363 20.6735 12.7382C21.1246 12.56 21.6432 12.5688 22.1032 12.8192C22.4028 12.9828 22.6957 13.0652 22.9964 13.0716H23.0584C23.3753 13.0647 23.6847 12.9734 24.0015 12.7922C24.4502 12.5349 24.9612 12.5123 25.4118 12.6748C26.7973 11.1668 27.7315 8.7152 28.0565 7.51932C28.1653 7.12012 28.4869 6.84109 28.8594 6.76844C29.1318 4.26135 28.3428 2.9471 27.7939 2.3568C27.5963 2.66912 27.179 2.83955 26.8302 2.73437L25.4548 2.3199C25.0906 2.20989 24.9357 1.84056 25.1108 1.49533L25.69 0.350005C25.8646 0.00420578 26.2641 -0.102778 26.5814 0.109387L27.7992 0.922765C28.0492 1.08969 28.1629 1.40106 28.1127 1.69232C28.7737 2.31459 29.8719 3.84138 29.5369 6.87249C29.9537 7.09945 30.1763 7.5969 30.0462 8.08212C29.9829 8.31344 28.8972 12.2217 26.5548 14.4818ZM10.6316 7.27083C9.8409 7.27083 9.1986 7.92648 9.1986 8.73635C9.1986 9.54565 9.8409 10.2018 10.6316 10.2018C11.4233 10.2018 12.0652 9.54565 12.0652 8.73635C12.0652 7.92639 11.4238 7.27083 10.6316 7.27083Z" fill="black"/>
</mask>
<g mask="url(#mask0_482:1528)">
<path d="M51.5149 -2.65552H18.486L15.0996 6.21235L18.486 19.5379H51.5149V-2.65552Z" fill="#1E1B1B"/>
</g>
</svg>
