<svg width="42" height="42" viewBox="0 0 42 42" fill="none" xmlns="http://www.w3.org/2000/svg">
<path d="M32.9766 7.13672C31.6023 7.13672 30.4234 6.2872 29.9356 5.08594H27.0703V2.625H29.9356C30.4234 1.42373 31.6023 0.574219 32.9766 0.574219C34.7858 0.574219 36.2578 2.04619 36.2578 3.85547C36.2578 5.66475 34.7858 7.13672 32.9766 7.13672Z" fill="#1E1B1B"/>
<path d="M38.7188 14.1094C38.1794 14.1094 37.6706 13.9778 37.2212 13.7462L34.1745 16.2852C33.9533 16.4694 33.6746 16.5703 33.3867 16.5703H27.0703V14.1094H32.9412L35.6126 11.8832C35.4997 11.5519 35.4375 11.1973 35.4375 10.8281C35.4375 9.01884 36.9095 7.54688 38.7188 7.54688C40.528 7.54688 42 9.01884 42 10.8281C42 12.6374 40.528 14.1094 38.7188 14.1094Z" fill="#1E1B1B"/>
<path d="M38.7188 24.3633C37.3445 24.3633 36.1656 23.5138 35.6778 22.3125H27.0703V19.8516H35.6778C36.1656 18.6503 37.3445 17.8008 38.7188 17.8008C40.528 17.8008 42 19.2727 42 21.082C42 22.8913 40.528 24.3633 38.7188 24.3633Z" fill="#1E1B1B"/>
<path d="M34.1745 25.879L37.2212 28.4179C37.6706 28.1863 38.1794 28.0547 38.7188 28.0547C40.528 28.0547 42 29.5267 42 31.3359C42 33.1452 40.528 34.6172 38.7188 34.6172C36.9095 34.6172 35.4375 33.1452 35.4375 31.3359C35.4375 30.9668 35.4997 30.6122 35.6126 30.2809L32.9412 28.0547H27.0703V25.5938H33.3867C33.6746 25.5938 33.9533 25.6946 34.1745 25.879Z" fill="#1E1B1B"/>
<path d="M32.9766 35.0273C34.7858 35.0273 36.2578 36.4993 36.2578 38.3086C36.2578 40.1179 34.7858 41.5898 32.9766 41.5898C31.6023 41.5898 30.4234 40.7403 29.9356 39.5391H27.0703V37.0781H29.9356C30.4234 35.8769 31.6023 35.0273 32.9766 35.0273Z" fill="#1E1B1B"/>
<path d="M12.3047 21.082C12.3047 16.3327 16.1686 12.4688 20.918 12.4688C22.2383 12.4688 23.4899 12.7678 24.6094 13.301V28.8631C23.4899 29.3963 22.2383 29.6953 20.918 29.6953C16.1686 29.6953 12.3047 25.8314 12.3047 21.082Z" fill="#1E1B1B"/>
<path d="M23.3789 42H18.457C17.7775 42 17.2266 41.4491 17.2266 40.7695V39.1679C14.9176 38.6975 12.708 37.7821 10.7399 36.4806L9.60701 37.6134C9.12647 38.0939 8.34742 38.0939 7.86688 37.6134L4.38662 34.1331C3.90608 33.6527 3.90608 32.8735 4.38662 32.393L5.51939 31.2601C4.21788 29.292 3.3025 27.0824 2.83213 24.7734H1.23047C0.550922 24.7734 0 24.2225 0 23.543V18.6211C0 17.9415 0.550922 17.3906 1.23047 17.3906H2.83213C3.3025 15.0817 4.21788 12.8721 5.51939 10.9038L4.38654 9.77099C4.15579 9.54023 4.02618 9.22728 4.02618 8.90096C4.02618 8.57464 4.15579 8.26178 4.38654 8.03102L7.86688 4.55069C8.34742 4.07014 9.12647 4.07014 9.60701 4.55069L10.7399 5.68345C12.708 4.38195 14.9176 3.46664 17.2266 2.99619V1.39453C17.2266 0.714985 17.7775 0.164062 18.457 0.164062H23.3789C24.0585 0.164062 24.6094 0.714985 24.6094 1.39453V10.6413C23.4542 10.2316 22.2118 10.0078 20.918 10.0078C14.8116 10.0078 9.84375 14.9757 9.84375 21.082C9.84375 27.1884 14.8116 32.1562 20.918 32.1562C22.2118 32.1562 23.4542 31.9325 24.6094 31.5228V40.7695C24.6094 41.4491 24.0585 42 23.3789 42Z" fill="#1E1B1B"/>
</svg>
