<svg width="25" height="24" viewBox="0 0 25 24" fill="none" xmlns="http://www.w3.org/2000/svg">
<g clip-path="url(#clip0_482:1269)">
<path d="M12.3335 2.16094C15.5397 2.16094 15.9194 2.175 17.1804 2.23125C18.3522 2.28281 18.9851 2.47969 19.4069 2.64375C19.9647 2.85938 20.3679 3.12188 20.7851 3.53906C21.2069 3.96094 21.4647 4.35938 21.6804 4.91719C21.8444 5.33906 22.0413 5.97656 22.0929 7.14375C22.1491 8.40937 22.1632 8.78906 22.1632 11.9906C22.1632 15.1969 22.1491 15.5766 22.0929 16.8375C22.0413 18.0094 21.8444 18.6422 21.6804 19.0641C21.4647 19.6219 21.2022 20.025 20.7851 20.4422C20.3632 20.8641 19.9647 21.1219 19.4069 21.3375C18.9851 21.5016 18.3476 21.6984 17.1804 21.75C15.9147 21.8062 15.5351 21.8203 12.3335 21.8203C9.12725 21.8203 8.74756 21.8062 7.48662 21.75C6.31475 21.6984 5.68193 21.5016 5.26006 21.3375C4.70225 21.1219 4.29912 20.8594 3.88193 20.4422C3.46006 20.0203 3.20225 19.6219 2.98662 19.0641C2.82256 18.6422 2.62568 18.0047 2.57412 16.8375C2.51787 15.5719 2.50381 15.1922 2.50381 11.9906C2.50381 8.78438 2.51787 8.40469 2.57412 7.14375C2.62568 5.97187 2.82256 5.33906 2.98662 4.91719C3.20225 4.35938 3.46475 3.95625 3.88193 3.53906C4.30381 3.11719 4.70225 2.85938 5.26006 2.64375C5.68193 2.47969 6.31943 2.28281 7.48662 2.23125C8.74756 2.175 9.12725 2.16094 12.3335 2.16094ZM12.3335 0C9.07568 0 8.66787 0.0140625 7.38818 0.0703125C6.11318 0.126563 5.23662 0.332812 4.47725 0.628125C3.68506 0.9375 3.01475 1.34531 2.34912 2.01562C1.67881 2.68125 1.271 3.35156 0.961621 4.13906C0.666309 4.90313 0.460059 5.775 0.403809 7.05C0.347559 8.33437 0.333496 8.74219 0.333496 12C0.333496 15.2578 0.347559 15.6656 0.403809 16.9453C0.460059 18.2203 0.666309 19.0969 0.961621 19.8563C1.271 20.6484 1.67881 21.3188 2.34912 21.9844C3.01475 22.65 3.68506 23.0625 4.47256 23.3672C5.23662 23.6625 6.1085 23.8687 7.3835 23.925C8.66318 23.9812 9.071 23.9953 12.3288 23.9953C15.5866 23.9953 15.9944 23.9812 17.2741 23.925C18.5491 23.8687 19.4257 23.6625 20.1851 23.3672C20.9726 23.0625 21.6429 22.65 22.3085 21.9844C22.9741 21.3188 23.3866 20.6484 23.6913 19.8609C23.9866 19.0969 24.1929 18.225 24.2491 16.95C24.3054 15.6703 24.3194 15.2625 24.3194 12.0047C24.3194 8.74688 24.3054 8.33906 24.2491 7.05938C24.1929 5.78438 23.9866 4.90781 23.6913 4.14844C23.396 3.35156 22.9882 2.68125 22.3179 2.01562C21.6522 1.35 20.9819 0.9375 20.1944 0.632812C19.4304 0.3375 18.5585 0.13125 17.2835 0.075C15.9991 0.0140625 15.5913 0 12.3335 0Z" fill="white"/>
<path d="M12.3335 5.83594C8.93037 5.83594 6.16943 8.59688 6.16943 12C6.16943 15.4031 8.93037 18.1641 12.3335 18.1641C15.7366 18.1641 18.4976 15.4031 18.4976 12C18.4976 8.59688 15.7366 5.83594 12.3335 5.83594ZM12.3335 15.9984C10.1257 15.9984 8.33506 14.2078 8.33506 12C8.33506 9.79219 10.1257 8.00156 12.3335 8.00156C14.5413 8.00156 16.3319 9.79219 16.3319 12C16.3319 14.2078 14.5413 15.9984 12.3335 15.9984Z" fill="white"/>
<path d="M20.1804 5.5919C20.1804 6.38877 19.5335 7.03096 18.7413 7.03096C17.9444 7.03096 17.3022 6.38408 17.3022 5.5919C17.3022 4.79502 17.9491 4.15283 18.7413 4.15283C19.5335 4.15283 20.1804 4.79971 20.1804 5.5919Z" fill="white"/>
</g>
<defs>
<clipPath id="clip0_482:1269">
<rect width="24" height="24" fill="white" transform="translate(0.333496)"/>
</clipPath>
</defs>
</svg>
