<svg width="38" height="46" viewBox="0 0 38 46" fill="none" xmlns="http://www.w3.org/2000/svg">
<path d="M22.1472 8.08594H15.8528C13.8933 10.3195 11.4334 12.04 8.66797 13.1154V21.3604C8.66797 28.3331 12.7046 34.5863 19 37.4487C25.2954 34.5863 29.332 28.3331 29.332 21.3604V13.1163C26.5657 12.0409 24.1067 10.3204 22.1472 8.08594ZM26.2423 19.6785L17.8563 28.0637C17.593 28.3269 17.248 28.4589 16.9039 28.4589C16.5589 28.4589 16.2139 28.3268 15.9507 28.0637L11.7577 23.8716C11.2321 23.3451 11.2321 22.4916 11.7577 21.9651C12.2842 21.4395 13.1377 21.4395 13.6642 21.9651L16.9039 25.2049L24.3367 17.773C24.8623 17.2465 25.7158 17.2465 26.2423 17.773C26.7679 18.2994 26.7679 19.152 26.2423 19.6785ZM36.0622 6.28906C32.1774 6.28906 28.6393 4.15438 26.8263 0.71875C26.5935 0.276719 26.1345 0 25.6349 0H12.3649C11.8654 0 11.4063 0.276719 11.1727 0.71875C9.36066 4.15438 5.82262 6.28906 1.92969 6.28906C1.18578 6.28906 0.582031 6.89281 0.582031 7.63672V21.3604C0.582031 26.8777 2.30613 32.1461 5.56746 36.5961C8.82879 41.046 13.3327 44.2758 18.5939 45.9371C18.726 45.9793 18.8634 46 19 46C19.1366 46 19.274 45.9793 19.4061 45.9371C24.6674 44.2759 29.1712 41.0461 32.4325 36.5961C35.6939 32.146 37.418 26.8777 37.418 21.3604V7.63672C37.418 6.89281 36.8061 6.28906 36.0622 6.28906ZM32.0273 21.2993C32.0273 29.5523 27.1174 36.933 19.5184 40.1018C19.3522 40.171 19.1761 40.2051 19 40.2051C18.8239 40.2051 18.6469 40.1709 18.4816 40.1018C10.8826 36.933 5.97266 29.5522 5.97266 21.2993V12.1064C5.97266 11.5243 6.34641 11.0077 6.89984 10.8262C9.75957 9.88551 12.2788 8.15602 14.1844 5.82457C14.4404 5.51102 14.8241 5.32953 15.2284 5.32953H22.7716C23.1849 5.32953 23.6719 5.64937 23.8155 5.82457C25.7211 8.15602 28.2403 9.88551 31.1001 10.8262C31.4946 10.9555 31.7964 11.2547 31.9383 11.6276C31.9402 11.6312 31.941 11.6357 31.9428 11.6393C31.977 11.7318 32.0012 11.8288 32.0148 11.9286C32.0157 11.9384 32.0174 11.9492 32.0184 11.9591C32.0238 12.0076 32.0273 12.0561 32.0273 12.1064V21.2993Z" fill="#1E1B1B"/>
</svg>
