<svg width="34" height="46" viewBox="0 0 34 46" fill="none" xmlns="http://www.w3.org/2000/svg">
<path d="M33.1719 18.1934C33.1719 17.8501 33.0409 17.5197 32.8056 17.2697L22.0243 5.8146C21.7696 5.54408 21.4146 5.39062 21.043 5.39062H7.56641C7.18152 5.39062 6.81495 5.55522 6.55917 5.8429L1.16854 11.9074C0.949324 12.1541 0.828125 12.4726 0.828125 12.8027V36.5664C0.828125 37.6009 1.21868 38.5459 1.86007 39.2617C1.21868 39.9775 0.828125 40.9226 0.828125 41.957C0.828125 44.1863 2.6418 46 4.87109 46H29.1289C31.3582 46 33.1719 44.1863 33.1719 41.957C33.1719 40.9226 32.7813 39.9775 32.1399 39.2617C32.7814 38.5459 33.1719 37.6009 33.1719 36.5664V18.1934ZM17 37.9137C14.7707 37.9137 12.957 36.1 12.957 33.8707C12.957 33.3157 13.1156 32.3044 14.4866 29.941C15.1791 28.7471 15.8624 27.7558 15.8911 27.7142C16.1428 27.35 16.5573 27.1325 17 27.1325C17.4428 27.1325 17.8572 27.3499 18.1089 27.7142C18.1376 27.7558 18.8209 28.7471 19.5134 29.941C20.8844 32.3045 21.043 33.3157 21.043 33.8707C21.043 36.1 19.2293 37.9137 17 37.9137ZM26.9347 22.0143C26.4135 22.5052 25.7502 22.7474 25.0869 22.7474C24.3697 22.7474 23.655 22.4631 23.1246 21.8998L16.9351 15.3234C15.9139 14.239 15.9665 12.5333 17.0496 11.5134C18.1354 10.4934 19.8423 10.5448 20.8596 11.6278L27.0491 18.2042C28.0704 19.2887 28.0177 20.9943 26.9347 22.0143Z" fill="#1E1B1B"/>
<path d="M15.6523 33.8724C15.6523 34.614 16.2569 35.2186 17 35.2186C17.7427 35.2186 18.347 34.6145 18.3477 33.872C18.3362 33.4585 17.776 32.2846 17.0003 30.978C16.2239 32.286 15.6633 33.4604 15.6523 33.8724Z" fill="#1E1B1B"/>
<path d="M15.6523 0H7.56641C6.82214 0 6.21875 0.603391 6.21875 1.34766V2.69531H17V1.34766C17 0.603391 16.3966 0 15.6523 0Z" fill="#1E1B1B"/>
</svg>
