<svg width="25" height="20" viewBox="0 0 25 20" fill="none" xmlns="http://www.w3.org/2000/svg">
<path d="M8.21666 19.7502C17.271 19.7502 22.2248 12.2469 22.2248 5.74211C22.2248 5.53117 22.2201 5.31554 22.2107 5.1046C23.1744 4.40771 24.006 3.5445 24.6665 2.55554C23.769 2.95484 22.8161 3.21563 21.8404 3.32898C22.8678 2.71315 23.637 1.74572 24.0056 0.606011C23.0391 1.1788 21.9821 1.58286 20.8799 1.80085C20.1373 1.01181 19.1555 0.48936 18.0862 0.314295C17.0169 0.13923 15.9197 0.321295 14.9642 0.832341C14.0088 1.34339 13.2483 2.15495 12.8004 3.14156C12.3524 4.12816 12.2419 5.23486 12.486 6.29054C10.529 6.19233 8.61444 5.68395 6.86649 4.79834C5.11853 3.91274 3.5762 2.66968 2.33947 1.14976C1.7109 2.23349 1.51856 3.51589 1.80153 4.73634C2.08451 5.95678 2.82157 7.02369 3.86291 7.72023C3.08113 7.69541 2.31648 7.48492 1.63213 7.10617V7.1671C1.63143 8.30439 2.0246 9.40683 2.74481 10.287C3.46503 11.1672 4.46783 11.7708 5.58275 11.9952C4.85856 12.1934 4.09849 12.2222 3.36135 12.0796C3.67596 13.0577 4.28808 13.9131 5.11227 14.5266C5.93647 15.14 6.93162 15.4808 7.95885 15.5015C6.21493 16.8714 4.06068 17.6144 1.84307 17.6109C1.44979 17.6103 1.0569 17.5861 0.666504 17.5387C2.91936 18.984 5.54004 19.7516 8.21666 19.7502Z" fill="white"/>
</svg>
